<?xml version="1.0" encoding="UTF-8"?>
<svg id="Layer_2" data-name="Layer 2" xmlns="http://www.w3.org/2000/svg" viewBox="0 0 110 100">
  <defs>
    <style>
      .cls-1 {
        fill: #231f20;
        opacity: .38;
      }
    </style>
  </defs>
  <g id="Core">
    <path class="cls-1" d="m109.97,36.6c-.05,1.76-.5,4.59-.98,6.28-1.66,5.81-4.18,11.15-7.56,15.99-1.75,2.5-3.55,4.96-5.48,7.29-2.17,2.63-4.4,5.22-6.81,7.6-3.22,3.18-6.61,6.18-9.98,9.19-5.43,4.85-11.27,9.12-17.24,13.19-1.63,1.11-3.26,2.23-4.93,3.27-.64.4-1.32.62-2,.59-.68.03-1.36-.19-2-.59-1.67-1.04-3.3-2.16-4.93-3.27-5.98-4.07-11.81-8.34-17.25-13.19-3.37-3.01-6.76-6.01-9.98-9.19-2.41-2.38-4.64-4.98-6.81-7.6-1.93-2.34-3.74-4.8-5.48-7.29-2.73-3.91-4.9-8.16-6.51-12.71C.99,43.16.15,40.06.03,36.87c-.11-3.04.04-6.13.47-9.13.35-2.5,1.14-4.96,1.97-7.35,1.17-3.36,2.93-6.4,5.15-9.13,2.03-2.5,4.24-4.77,6.89-6.55,3.22-2.17,6.67-3.63,10.47-4.3,3.54-.63,7.01-.5,10.5.2,3.18.63,6.11,1.89,8.87,3.66,3.22,2.07,6.04,4.59,8.29,7.8.78,1.11,1.54,2.23,2.36,3.42.82-1.19,1.58-2.31,2.36-3.42,2.25-3.2,5.07-5.73,8.29-7.8,2.76-1.77,5.7-3.03,8.88-3.66,3.49-.69,6.96-.83,10.5-.2,3.8.68,7.25,2.13,10.47,4.3,2.65,1.78,4.86,4.05,6.89,6.55,2.22,2.73,3.97,5.77,5.14,9.13.83,2.39,1.62,4.85,1.97,7.35.42,2.92.57,5.91.48,8.86Z"/>
  </g>
</svg>