<?xml version="1.0" encoding="UTF-8"?>
<svg id="Layer_2" data-name="Layer 2" xmlns="http://www.w3.org/2000/svg" viewBox="0 0 39.54 38.26">
  <defs>
    <style>
      .cls-1 {
        fill: #bbbdbf;
      }
    </style>
  </defs>
  <g id="Common">
    <g>
      <path class="cls-1" d="m17.7,11.74l-6.61,6.99-2.54-2.69c-1.88.98-3.95,1.61-6.12,1.86-.77.06-1.53-.57-1.7-1.4-.01-.08-.02-.15-.03-.22-.05-.76.44-1.36,1.13-1.42,2.76-.34,5.3-1.39,7.44-3.06L3.59,5.8l-1.06,1.12s-.02.02-.03.03c-.53.54-1.44.46-2.03-.18-.59-.64-.63-1.6-.1-2.14L4.37.39s.02-.02.03-.03c.54-.54,1.44-.46,2.03.18s.64,1.6.11,2.14l-1.06,1.12,5.68,6.01c1.57-2.26,2.56-4.96,2.89-7.87.08-.79.74-1.29,1.51-1.14.79.16,1.4.96,1.35,1.78-.23,2.29-.83,4.48-1.75,6.47l2.54,2.69Z"/>
      <path class="cls-1" d="m35.46,37.51c-.64.69-1.62.92-2.59.63-3.63-1.47-6.99-3.79-9.81-6.76l-1.23-1.3,6.61-6.98,1.22,1.29c2.78,2.95,4.95,6.45,6.35,10.23.33,1.07.12,2.17-.55,2.89Z"/>
      <path class="cls-1" d="m35.95,5.8l-5.68,6c2.13,1.67,4.68,2.72,7.43,3.07.75.07,1.23.78,1.08,1.59-.07.41-.28.77-.57,1.02-.31.28-.71.44-1.11.41-2.17-.25-4.23-.87-6.12-1.85l-4.61,4.87-6.6,6.99-3.29,3.48c-2.79,2.94-6.1,5.24-9.68,6.71-.31.11-.63.16-.95.16-.67,0-1.31-.25-1.78-.74-.64-.68-.87-1.71-.59-2.74,1.39-3.84,3.58-7.39,6.39-10.38l3.29-3.48,6.61-6.99,4.6-4.87c-.92-1.99-1.51-4.18-1.75-6.47-.06-.82.53-1.62,1.32-1.8.07-.02.14-.03.21-.03.29-.02.55.05.77.19.06.03.12.08.17.14.06.04.11.11.16.17h0c.09.14.16.28.2.44.02.08.03.16.04.25.33,2.92,1.32,5.61,2.89,7.87l5.68-6.01-1.06-1.12-.03-.03c-.51-.56-.44-1.52.17-2.15.32-.33.73-.5,1.12-.5.34,0,.67.13.9.39l4.01,4.24s.02.02.03.03c.51.57.43,1.53-.17,2.15-.33.33-.74.5-1.12.5-.34,0-.67-.13-.91-.39l-1.05-1.12Z"/>
    </g>
  </g>
</svg>