<?xml version="1.0" encoding="UTF-8"?>
<svg id="Layer_2" data-name="Layer 2" xmlns="http://www.w3.org/2000/svg" viewBox="0 0 34.78 36.71">
  <defs>
    <style>
      .cls-1 {
        fill: #bcbec0;
      }
    </style>
  </defs>
  <g id="Common">
    <g id="Common-2" data-name="Common">
      <path class="cls-1" d="m18.85,36.69c-1.13,0-1.91.05-2.69,0-.73-.05-1.47-.15-2.19-.32-.8-.18-1.45-1.1-1.58-1.91-.28-1.91-1.36-3.18-3.15-3.87-1.15-.44-2.26-.31-3.41.08-1.21.41-2.07.06-2.78-.87-.8-.99-1.5-2.05-2.05-3.18-.37-.75-.86-1.48-.86-2.39,0-.8.38-1.36.96-1.82,1.07-.86,1.65-1.93,1.82-3.29.15-1.27-.17-2.39-.93-3.38-.29-.38-.66-.73-1.06-1.02C0,14.03-.21,12.81.2,11.8c.66-1.59,1.45-3.11,2.51-4.47.47-.61.95-1.24,1.81-1.38.44-.08.87-.05,1.28.14,1.96.9,4.24.46,5.66-1.16.66-.75,1.01-1.65,1.13-2.66.11-.93.72-1.76,1.76-2C15.82-.07,17.32,0,18.8.04c.75.03,1.5.23,2.23.37.78.15,1.56,1.04,1.64,2,.18,1.96,1.71,3.73,3.7,4.13.96.2,1.9.11,2.81-.23,1.1-.4,2-.08,2.74.84,1.18,1.47,2.05,3.11,2.72,4.86.26.69.09,1.85-.49,2.36-.66.6-1.3,1.21-1.67,2.05-.73,1.71-.49,3.32.58,4.82.24.34.57.6.87.87.81.75,1.02,1.64.67,2.62-.54,1.51-1.27,2.92-2.23,4.21-.41.57-.87,1.13-1.41,1.59-.61.52-1.39.46-2.11.2-1.81-.63-3.4-.28-4.82.95-.95.81-1.42,1.87-1.62,3.11-.12.73-.67,1.44-1.73,1.65-.72.15-1.47.2-1.85.24v.02Zm-1.47-26.6c-4.33-.12-8.55,3.72-8.29,8.67.2,3.75,3.35,8.4,9.25,7.83,3.9-.37,7.33-3.58,7.34-8.32.02-4.47-3.56-8.2-8.29-8.2l-.02.02Z"/>
    </g>
  </g>
</svg>