<?xml version="1.0" encoding="UTF-8"?>
<svg id="Layer_2" data-name="Layer 2" xmlns="http://www.w3.org/2000/svg" viewBox="0 0 40 40">
  <defs>
    <style>
      .cls-1 {
        fill: #231f20;
      }
    </style>
  </defs>
  <g id="Core">
    <path class="cls-1" d="m20,3c.78,0,1.54.14,2.27.41,3.34,1.24,6.65,1.9,9.56,1.9,1.72,0,3.33-.23,4.82-.67.02,0,.08.02.16.1.06.06.19.22.19.49-.13,17.94-1.31,24.78-14.05,31.08-.92.45-1.94.69-2.95.69s-2.04-.24-2.95-.69C4.31,30.01,3.13,23.17,3,5.22c0-.27.13-.43.19-.49.07-.07.13-.09.17-.09,0,0,0,0,.01,0,1.46.44,3.08.67,4.8.67,2.91,0,6.22-.66,9.56-1.9.73-.27,1.5-.41,2.27-.41m0-3c-1.12,0-2.25.2-3.32.6-2.75,1.02-5.72,1.71-8.51,1.71-1.37,0-2.7-.17-3.93-.54-.3-.09-.6-.13-.89-.13C1.55,1.64-.01,3.25,0,5.25c.13,18.26,1.48,26.71,15.72,33.75,1.35.67,2.82,1,4.28,1s2.93-.33,4.28-1c14.24-7.04,15.59-15.49,15.72-33.75.01-2-1.55-3.61-3.34-3.61-.29,0-.59.04-.89.13-1.23.37-2.56.54-3.93.54-2.79,0-5.76-.69-8.51-1.71-1.07-.4-2.2-.6-3.32-.6h0Z"/>
  </g>
</svg>