<?xml version="1.0" encoding="UTF-8"?>
<svg id="Layer_2" data-name="Layer 2" xmlns="http://www.w3.org/2000/svg" viewBox="0 0 60 50">
  <defs>
    <style>
      .cls-1 {
        fill: #231f20;
        opacity: .38;
      }
    </style>
  </defs>
  <g id="Core">
    <path class="cls-1" d="m59.99,18.3c-.03.88-.27,2.29-.54,3.14-.9,2.9-2.28,5.58-4.12,7.99-.95,1.25-1.94,2.48-2.99,3.65-1.18,1.31-2.4,2.61-3.71,3.8-1.76,1.59-3.6,3.09-5.44,4.59-2.96,2.42-6.15,4.56-9.41,6.59-.89.56-1.78,1.12-2.69,1.64-.35.2-.72.31-1.09.29-.37.02-.74-.09-1.09-.29-.91-.52-1.8-1.08-2.69-1.64-3.26-2.03-6.44-4.17-9.41-6.59-1.84-1.51-3.69-3-5.44-4.59-1.31-1.19-2.53-2.49-3.71-3.8-1.05-1.17-2.04-2.4-2.99-3.65-1.49-1.95-2.68-4.08-3.55-6.36C.54,21.58.08,20.03.02,18.44c-.06-1.52.02-3.06.26-4.57.19-1.25.62-2.48,1.08-3.67.64-1.68,1.6-3.2,2.81-4.57,1.11-1.25,2.31-2.39,3.76-3.28,1.76-1.08,3.64-1.81,5.71-2.15,1.93-.32,3.82-.25,5.73.1,1.73.32,3.33.95,4.84,1.83,1.76,1.03,3.3,2.3,4.52,3.9.42.55.84,1.12,1.29,1.71.45-.59.86-1.16,1.29-1.71,1.22-1.6,2.76-2.86,4.52-3.9,1.51-.89,3.11-1.52,4.84-1.83,1.9-.35,3.8-.41,5.73-.1,2.07.34,3.95,1.07,5.71,2.15,1.44.89,2.65,2.03,3.76,3.28,1.21,1.37,2.17,2.89,2.81,4.57.45,1.19.88,2.42,1.08,3.67.23,1.46.31,2.96.26,4.43Z"/>
  </g>
</svg>