<?xml version="1.0" encoding="UTF-8"?>
<svg id="Layer_2" data-name="Layer 2" xmlns="http://www.w3.org/2000/svg" viewBox="0 0 60 50">
  <defs>
    <style>
      .cls-1 {
        fill: #231f20;
      }
    </style>
  </defs>
  <g id="Core">
    <path class="cls-1" d="m43.86,3c.69,0,1.37.06,2.04.16,1.64.27,3.15.84,4.62,1.74,1.03.64,2.01,1.5,3.09,2.71,1,1.13,1.76,2.36,2.25,3.64.45,1.17.77,2.15.92,3.07.19,1.25.27,2.56.23,3.87-.02.61-.22,1.75-.4,2.35-.8,2.56-2.02,4.94-3.64,7.06-1.07,1.4-1.97,2.5-2.83,3.46-1.02,1.13-2.22,2.43-3.5,3.59-1.55,1.41-3.24,2.79-4.87,4.12l-.45.37c-2.47,2.02-5.28,3.99-9.09,6.37l-.33.2c-.64.4-1.25.78-1.86,1.14-.61-.36-1.21-.73-1.84-1.13l-.35-.22c-3.81-2.38-6.62-4.34-9.09-6.37l-.46-.37c-1.63-1.33-3.32-2.71-4.87-4.12-1.28-1.16-2.48-2.46-3.5-3.59-.87-.97-1.77-2.07-2.83-3.46-1.31-1.72-2.36-3.6-3.14-5.62-.58-1.51-.86-2.65-.9-3.68-.05-1.36.02-2.7.22-4,.14-.92.47-1.89.91-3.06.49-1.29,1.25-2.51,2.25-3.64,1.07-1.21,2.05-2.07,3.08-2.71,1.47-.91,2.98-1.48,4.62-1.74.67-.11,1.35-.16,2.04-.16.86,0,1.74.08,2.67.25,1.33.24,2.59.72,3.86,1.47,1.54.91,2.74,1.93,3.66,3.14.25.33.5.66.76,1l.52.69c.57.75,1.45,1.19,2.39,1.19h0c.94,0,1.83-.44,2.39-1.2l.46-.62c.27-.37.54-.72.81-1.08.92-1.2,2.11-2.23,3.66-3.13,1.26-.74,2.52-1.22,3.86-1.47.93-.17,1.8-.25,2.67-.25m0-3c-1.07,0-2.14.11-3.21.3-1.73.32-3.34.95-4.84,1.83-1.76,1.03-3.3,2.3-4.52,3.9-.42.55-.84,1.12-1.29,1.71-.45-.59-.86-1.16-1.29-1.71-1.22-1.6-2.76-2.86-4.52-3.9-1.51-.89-3.11-1.52-4.84-1.83-1.07-.19-2.14-.3-3.21-.3-.84,0-1.68.06-2.52.2-2.07.34-3.95,1.07-5.71,2.15-1.44.89-2.65,2.03-3.76,3.28-1.21,1.37-2.17,2.89-2.81,4.57-.45,1.19-.88,2.42-1.08,3.67C.04,15.37-.04,16.92.02,18.44c.06,1.59.52,3.14,1.1,4.64.88,2.28,2.06,4.4,3.55,6.36.95,1.25,1.94,2.48,2.99,3.65,1.18,1.31,2.4,2.61,3.71,3.8,1.76,1.59,3.6,3.09,5.44,4.59,2.96,2.42,6.15,4.56,9.41,6.59.89.56,1.77,1.12,2.69,1.64.33.19.68.29,1.02.29.02,0,.05,0,.07,0,.02,0,.05,0,.07,0,.35,0,.69-.11,1.02-.29.91-.52,1.8-1.08,2.69-1.64,3.26-2.03,6.44-4.17,9.41-6.59,1.84-1.51,3.69-3,5.44-4.59,1.31-1.19,2.53-2.49,3.71-3.8,1.05-1.17,2.04-2.4,2.99-3.65,1.84-2.42,3.22-5.09,4.12-7.99.26-.85.51-2.26.54-3.14.05-1.48-.03-2.97-.26-4.43-.19-1.25-.62-2.48-1.08-3.67-.64-1.68-1.6-3.2-2.81-4.57-1.11-1.25-2.31-2.39-3.76-3.28-1.76-1.08-3.64-1.81-5.71-2.15-.85-.14-1.69-.2-2.52-.2h0Z"/>
  </g>
</svg>