<?xml version="1.0" encoding="UTF-8"?>
<svg id="Layer_2" data-name="Layer 2" xmlns="http://www.w3.org/2000/svg" viewBox="0 0 39.53 42.09">
  <defs>
    <style>
      .cls-1 {
        fill: #bcbec0;
      }
    </style>
  </defs>
  <g id="Common">
    <g>
      <path class="cls-1" d="m32.68,36.14l-10.13,5.85c-.49.28-1.11-.07-1.11-.64l-.02-5.86c0-.41.33-.74.74-.74h10.15c.75,0,1.02,1,.37,1.38Z"/>
      <path class="cls-1" d="m18.16,35.5l-.02,5.86c0,.57-.62.92-1.11.64l-10.13-5.85c-.65-.38-.39-1.38.37-1.38h10.14c.41,0,.74.33.74.73Z"/>
      <path class="cls-1" d="m15.62,31.37H2.5c-.57,0-.92-.62-.64-1.11l6.56-11.36c.28-.49.99-.49,1.28,0l6.56,11.36c.28.49-.07,1.11-.64,1.11Z"/>
      <path class="cls-1" d="m37.02,31.35h-13.1c-.57,0-.92-.62-.64-1.11l6.55-11.34c.28-.49.99-.49,1.28,0l6.55,11.34c.28.49-.07,1.11-.64,1.11Z"/>
      <path class="cls-1" d="m39.53,12.4v11.7c0,.75-1,1.02-1.38.37l-5.08-8.78c-.2-.35-.08-.81.27-1.01l5.08-2.92c.49-.28,1.11.07,1.11.64Z"/>
      <path class="cls-1" d="m36.82,8.95l-5.07,2.94c-.35.21-.81.08-1.01-.27l-5.07-8.79c-.38-.65.35-1.38,1.01-1.01l10.13,5.84c.49.28.49.99,0,1.28Z"/>
      <path class="cls-1" d="m26.32,12.83h-13.11c-.57,0-.92-.61-.64-1.11L19.13.37c.28-.49.99-.49,1.28,0l6.56,11.35c.28.49-.07,1.11-.64,1.11Z"/>
      <path class="cls-1" d="m26.95,17.29l-6.55,11.34c-.28.49-.99.49-1.28,0l-6.55-11.34c-.28-.49.07-1.11.64-1.11h13.1c.57,0,.92.61.64,1.11Z"/>
      <path class="cls-1" d="m6.48,15.75L1.38,24.51C1,25.16,0,24.89,0,24.14l.04-11.7c0-.57.62-.92,1.11-.64l5.07,2.93c.35.2.47.66.27,1.01Z"/>
      <path class="cls-1" d="m13.9,2.85l-5.07,8.79c-.2.35-.66.47-1.01.27l-5.07-2.94c-.49-.28-.49-.99,0-1.28L12.89,1.84c.65-.38,1.38.35,1.01,1.01Z"/>
    </g>
  </g>
</svg>