<?xml version="1.0" encoding="UTF-8"?>
<svg id="Layer_2" data-name="Layer 2" xmlns="http://www.w3.org/2000/svg" viewBox="0 0 22.73 24">
  <defs>
    <style>
      .cls-1 {
        fill: #603913;
      }
    </style>
  </defs>
  <g id="Common">
    <path class="cls-1" d="m12.32,23.99c-.74,0-1.25.03-1.76,0-.48-.03-.96-.1-1.43-.21-.52-.12-.95-.72-1.03-1.25-.18-1.25-.89-2.08-2.06-2.53-.75-.29-1.48-.2-2.23.05-.79.27-1.35.04-1.82-.57-.52-.65-.98-1.34-1.34-2.08-.24-.49-.56-.97-.56-1.56,0-.52.25-.89.63-1.19.7-.56,1.08-1.26,1.19-2.15.1-.83-.11-1.56-.61-2.21-.19-.25-.43-.48-.69-.67C0,9.18-.14,8.38.13,7.72c.43-1.04.95-2.03,1.64-2.92.31-.4.62-.81,1.18-.9.29-.05.57-.03.84.09,1.28.59,2.77.3,3.7-.76.43-.49.66-1.08.74-1.74.07-.61.47-1.15,1.15-1.31.96-.22,1.94-.18,2.91-.15.49.02.98.15,1.46.24.51.1,1.02.68,1.07,1.31.12,1.28,1.12,2.44,2.42,2.7.63.13,1.24.07,1.84-.15.72-.26,1.31-.05,1.79.55.77.96,1.34,2.03,1.78,3.18.17.45.06,1.21-.32,1.54-.43.39-.85.79-1.09,1.34-.48,1.12-.32,2.17.38,3.15.16.22.37.39.57.57.53.49.67,1.07.44,1.71-.35.99-.83,1.91-1.46,2.75-.27.37-.57.74-.92,1.04-.4.34-.91.3-1.38.13-1.18-.41-2.22-.18-3.15.62-.62.53-.93,1.22-1.06,2.03-.08.48-.44.94-1.13,1.08-.47.1-.96.13-1.21.16Zm-.96-17.39c-2.83-.08-5.59,2.43-5.42,5.67.13,2.45,2.19,5.49,6.05,5.12,2.55-.24,4.79-2.34,4.8-5.44.01-2.92-2.33-5.36-5.42-5.36Z"/>
  </g>
</svg>