<?xml version="1.0" encoding="UTF-8"?>
<svg id="Layer_2" data-name="Layer 2" xmlns="http://www.w3.org/2000/svg" viewBox="0 0 33.72 40">
  <defs>
    <style>
      .cls-1 {
        fill: #bcbec0;
      }
    </style>
  </defs>
  <g id="Common">
    <path class="cls-1" d="m24.03,10.78c-.3-.2-.34-.63-.07-.88,1.61-1.64,3.09-3.62,3.91-5.85.72-1.95-.71-4.06-2.64-4.06H8.49c-1.93,0-3.36,2.1-2.64,4.06.82,2.23,2.3,4.22,3.91,5.85.26.25.22.68-.07.88C4.02,14.71,0,22.7,0,29.59c0,5.74,4.3,10.41,9.58,10.41h14.55c5.28,0,9.58-4.67,9.58-10.41,0-6.89-4.02-14.88-9.68-18.8Zm1.37,13.54l-2.61,2.54c-.35.35-.51.85-.43,1.33l.61,3.59c.22,1.23-1.08,2.17-2.19,1.59l-3.22-1.69c-.43-.23-.96-.23-1.39,0l-3.22,1.69c-1.11.58-2.41-.37-2.19-1.59l.61-3.59c.08-.48-.08-.98-.43-1.33l-2.61-2.54c-.9-.88-.4-2.39.83-2.57l3.6-.53c.5-.07.91-.38,1.15-.81l1.59-3.27c.56-1.13,2.16-1.13,2.72,0l1.59,3.27c.23.43.65.75,1.15.81l3.6.53c1.23.18,1.73,1.69.83,2.57Z"/>
  </g>
</svg>