<?xml version="1.0" encoding="UTF-8"?>
<svg id="Layer_2" data-name="Layer 2" xmlns="http://www.w3.org/2000/svg" viewBox="0 0 23.96 24">
  <defs>
    <style>
      .cls-1 {
        fill: #603913;
      }
    </style>
  </defs>
  <g id="Common">
    <g>
      <path class="cls-1" d="m3.28,0C8.64,0,14,0,19.35,0c.04.03.08.07.12.09.37.12.71.52.66,1.07-1.36.49-2.56,1.24-3.59,2.25-.44.43-.83.9-1.23,1.36-.69.81-1.25,1.7-1.75,2.64-.51.97-.91,1.99-1.2,3.04-.22.79-.38,1.58-.42,2.4,0,.08-.06.17-.11.23-.51.52-1.04,1.04-1.55,1.56-.19.19-.31.41-.22.7.19.58.76.72,1.19.29.51-.51,1.03-1.03,1.54-1.54.06-.05.14-.11.21-.12.74-.06,1.46-.19,2.18-.37,1.67-.42,3.22-1.13,4.66-2.06.09-.06.19-.1.29-.16v8.4c-.1,0-.18,0-.27,0-1.85,0-3.7,0-5.55,0-2.63,0-5.26,0-7.9,0-.53,0-.82.34-.8.81.02.73,0,1.47,0,2.2,0,.14,0,.29-.04.43-.14.58-.86.97-1.43.7-.45-.21-.64-.55-.64-1.04,0-7.05,0-14.1,0-21.16,0-.59-.03-1.16-.24-1.71Z"/>
      <path class="cls-1" d="m1.31,0c.2.16.44.29.6.49.12.15.19.37.19.57.02,1.36,0,2.71,0,4.1-.53,0-1.06.02-1.58-.01-.25-.02-.4-.25-.52-.46V.75C.16.39.42.13.8,0,.97,0,1.14,0,1.31,0Z"/>
      <path class="cls-1" d="m14.59,12.21c.07-.04.14-.07.19-.12,1.45-1.45,2.9-2.91,4.36-4.35.23-.23.25-.48.18-.76-.06-.24-.33-.44-.66-.43-.24,0-.41.09-.57.25-1.43,1.43-2.86,2.86-4.29,4.29-.06.06-.09.14-.17.18.26-1.27.72-2.46,1.36-3.56.37-.64.77-1.28,1.22-1.86.47-.6,1.02-1.14,1.56-1.68.54-.54,1.18-.96,1.86-1.29.81-.4,1.65-.71,2.55-.82.33-.04.66-.12,1-.13.55-.02.84.34.75.89-.09.51-.14,1.02-.24,1.53-.14.74-.44,1.42-.79,2.09-.49.94-1.16,1.74-1.93,2.45-.79.72-1.65,1.36-2.58,1.9-.96.55-1.97.99-3.02,1.32-.24.08-.49.13-.73.2l-.06-.09Z"/>
      <path class="cls-1" d="m6.78,23.99c.39-.91.19-1.86.26-2.8.08,0,.15,0,.23,0,4.96,0,9.91,0,14.87,0,.53,0,.82.29.82.82,0,.4-.01.8-.22,1.16-.3.51-.74.83-1.33.83-4.83.01-9.66,0-14.5,0-.03,0-.06,0-.13,0Z"/>
    </g>
  </g>
</svg>