<?xml version="1.0" encoding="UTF-8"?>
<svg id="Layer_2" data-name="Layer 2" xmlns="http://www.w3.org/2000/svg" viewBox="0 0 423 143">
  <defs>
    <style>
      .cls-1 {
        fill: #8b5e3c;
        font-family: Berenika-Bold, Berenika;
        font-size: 13px;
        font-weight: 700;
      }

      .cls-2 {
        letter-spacing: -.02em;
      }

      .cls-3 {
        fill: none;
        stroke-linecap: round;
      }

      .cls-3, .cls-4, .cls-5, .cls-6 {
        stroke: #8b5e3c;
      }

      .cls-3, .cls-4, .cls-6 {
        stroke-width: 3px;
      }

      .cls-3, .cls-6 {
        stroke-linejoin: round;
      }

      .cls-4 {
        fill: rgba(216, 187, 154, .38);
      }

      .cls-4, .cls-5 {
        stroke-miterlimit: 10;
      }

      .cls-7 {
        fill: #754c29;
      }

      .cls-8 {
        fill: #603913;
        font-family: HolyEmpire, 'Holy Empire';
        font-size: 14px;
      }

      .cls-5 {
        stroke-width: 2px;
      }

      .cls-5, .cls-6 {
        fill: rgba(196, 154, 108, .38);
      }

      .cls-9 {
        letter-spacing: -.01em;
      }

      .cls-10 {
        letter-spacing: 0em;
      }
    </style>
  </defs>
  <g id="Common">
    <rect class="cls-6" x="1.5" y="81.5" width="84.57" height="40" rx="10" ry="10"/>
    <rect class="cls-6" x="381.5" y="81.5" width="40" height="40" rx="10" ry="10"/>
    <path class="cls-7" d="m402.34,112.06c-.65,0-1.1.02-1.55,0-.42-.03-.84-.09-1.25-.18-.45-.1-.84-.64-.91-1.1-.16-1.1-.78-1.83-1.81-2.23-.66-.26-1.31-.17-1.96.05-.7.23-1.18.03-1.6-.5-.45-.57-.86-1.18-1.18-1.83-.21-.43-.49-.85-.49-1.38,0-.46.22-.78.55-1.05.61-.49.95-1.11,1.05-1.89.09-.73-.1-1.37-.54-1.94-.17-.22-.38-.43-.61-.59-.54-.38-.66-1.09-.43-1.67.37-.92.84-1.79,1.44-2.57.27-.35.55-.71,1.04-.79.26-.04.5-.03.74.08,1.13.52,2.44.26,3.25-.67.38-.43.58-.95.65-1.53.06-.54.42-1.01,1.01-1.15.84-.2,1.71-.16,2.56-.13.43.02.86.13,1.29.21.44.08.9.6.95,1.15.1,1.13.98,2.15,2.13,2.38.56.11,1.09.06,1.62-.13.63-.23,1.15-.05,1.58.49.68.85,1.18,1.79,1.56,2.8.15.4.05,1.06-.28,1.36-.38.34-.75.69-.96,1.18-.42.99-.28,1.91.34,2.77.14.19.32.35.5.51.47.43.59.94.38,1.5-.31.87-.73,1.68-1.28,2.42-.24.33-.5.65-.81.91-.35.3-.8.26-1.22.12-1.04-.36-1.96-.16-2.77.55-.54.47-.82,1.07-.93,1.78-.07.42-.39.83-.99.95-.42.08-.84.12-1.06.14Zm-.85-15.3c-2.49-.07-4.92,2.14-4.77,4.99.11,2.16,1.93,4.83,5.32,4.51,2.24-.21,4.21-2.05,4.22-4.78,0-2.57-2.05-4.71-4.77-4.71Z"/>
    <rect class="cls-6" x="96.93" y="81.5" width="84.57" height="40" rx="10" ry="10"/>
    <rect class="cls-6" x="191.5" y="81.5" width="84.57" height="40" rx="10" ry="10"/>
    <rect class="cls-6" x="286.93" y="81.5" width="84.57" height="40" rx="10" ry="10"/>
    <line class="cls-3" x1="1.5" y1="141.5" x2="421.5" y2="141.5"/>
    <text class="cls-8" transform="translate(34.84 105.63)"><tspan x="0" y="0">COre</tspan></text>
    <text class="cls-8" transform="translate(218.19 105.63)"><tspan x="0" y="0">ITEms</tspan></text>
    <text class="cls-8" transform="translate(313.96 105.63)"><tspan x="0" y="0">STOry</tspan></text>
    <text class="cls-8" transform="translate(121.12 105.63)"><tspan x="0" y="0">POwer</tspan></text>
    <g>
      <path class="cls-7" d="m12.99,98.63h10.27c-1.72,2.97-3.42,5.92-5.14,8.9-1.72-2.98-3.42-5.93-5.13-8.9Z"/>
      <path class="cls-7" d="m9.29,106.7c.93-2.44,1.85-4.85,2.78-7.29,1.64,2.84,3.26,5.65,4.88,8.45,0,.02-.02.04-.02.06-2.54-.41-5.09-.82-7.64-1.22Z"/>
      <path class="cls-7" d="m19.26,107.93c1.64-2.84,3.27-5.66,4.92-8.52.93,2.44,1.85,4.85,2.78,7.28-2.57.41-5.12.82-7.7,1.24Z"/>
      <path class="cls-7" d="m23.03,97.43h-9.81c.21-.26.4-.5.59-.73.32-.4.64-.8.96-1.2.31-.38.63-.76.94-1.15.38-.46.75-.93,1.12-1.39.32-.39.64-.78.97-1.17.07-.09.17-.17.22-.27.08-.13.14-.09.2,0,.37.45.73.91,1.1,1.37.31.38.63.76.94,1.14.38.46.75.93,1.12,1.39.31.38.63.76.94,1.15.23.28.46.56.7.86Z"/>
      <path class="cls-7" d="m15.53,92.7c-.18.23-.37.46-.55.69-.38.47-.76.95-1.15,1.42-.38.46-.76.92-1.14,1.38-.25.31-.5.63-.75.94-.07.09-.12.14-.25.06-.63-.37-1.27-.73-1.91-1.09-.03-.02-.05-.06-.09-.1,1.94-1.12,3.87-2.24,5.81-3.35.01.01.02.03.04.04Z"/>
      <path class="cls-7" d="m20.74,92.65c1.94,1.12,3.88,2.24,5.84,3.37-.72.42-1.43.83-2.15,1.24-1.24-1.52-2.48-3.05-3.72-4.58.01-.01.02-.03.03-.04Z"/>
      <path class="cls-7" d="m11.66,108.29c.29.04.57.08.86.13.39.06.79.13,1.18.19.43.07.86.14,1.29.21.39.06.78.12,1.16.18.42.07.84.13,1.26.2.05,0,.12.09.12.14,0,.78,0,1.56,0,2.37-1.98-1.14-3.93-2.27-5.89-3.4,0,0,0-.02,0-.03Z"/>
      <path class="cls-7" d="m27.14,103.84c-.7-1.84-1.41-3.69-2.12-5.55.71-.41,1.41-.82,2.14-1.24v6.78s-.01,0-.02,0Z"/>
      <path class="cls-7" d="m24.58,108.32c-1.94,1.12-3.89,2.25-5.84,3.37v-2.47c1.95-.31,3.9-.62,5.84-.94,0,.01,0,.03,0,.04Z"/>
      <path class="cls-7" d="m9.09,103.83v-6.76c.72.41,1.42.82,2.13,1.23-.71,1.85-1.41,3.7-2.11,5.54,0,0-.01,0-.02,0Z"/>
    </g>
    <g>
      <path class="cls-7" d="m102.98,108.14c.03-.26.1-.5.3-.69.27-.26.79-.35,1.12-.14.6.38,1.2.75,1.8,1.11.33.2.47.5.44.87-.02.34-.2.6-.5.77-.02,0-.03.03-.05.04l-1.31.31s-.04-.02-.06-.02c-.49,0-.89-.21-1.21-.58-.08-.1-.15-.21-.23-.32-.11-.45-.21-.9-.32-1.34Z"/>
      <path class="cls-7" d="m103.29,109.48c.08.11.14.22.23.32.32.37.72.57,1.21.58.02,0,.04.02.06.02l-1.21.29c-.1-.4-.19-.81-.29-1.21Z"/>
      <path class="cls-7" d="m109.51,101.96c.05-.06.1-.1.14-.15,1.14-1.84,2.27-3.69,3.42-5.53.17-.27.06-.61-.15-.74-.22-.13-.59-.04-.73.2-1.13,1.84-2.27,3.68-3.4,5.53-.09.15-.16.16-.3.07-.52-.33-1.04-.65-1.57-.97-.05-.03-.11-.04-.16-.06.29-.58.56-1.11.83-1.65.29-.59.57-1.18.86-1.77.26-.52.53-1.04.79-1.56.25-.51.49-1.02.74-1.52.22-.44.45-.88.67-1.32.1-.2.2-.4.28-.6.11-.26.32-.4.58-.5.68-.26,1.35-.53,2.02-.8.49-.19.99-.38,1.48-.57.35-.14.69-.29,1.05-.42.33-.12.74.04.76.48.02.37.07.73.11,1.09.04.37.06.74.1,1.11.03.36.07.72.1,1.08.03.37.06.74.1,1.11.01.17,0,.36.05.52.09.32-.07.54-.24.77-.31.41-.62.83-.94,1.25-.34.45-.69.9-1.03,1.35-.24.32-.47.65-.71.97-.3.39-.6.78-.89,1.18-.24.31-.46.63-.7.94-.24.32-.49.64-.73.96-.17.23-.34.46-.51.68-.03.03-.12.05-.15.03-.6-.36-1.21-.74-1.85-1.13Z"/>
      <path class="cls-7" d="m110.52,106.09c-.15-.04-.28-.05-.38-.12-1.74-1.06-3.46-2.14-5.2-3.2-.32-.2-.45-.58-.14-.95.21-.25.48-.43.79-.5.43-.1.86-.07,1.25.18,1.17.72,2.34,1.44,3.51,2.17.32.2.53.48.65.85.14.45.1.87-.13,1.27-.07.12-.22.2-.34.3Z"/>
      <path class="cls-7" d="m106.08,104.7c.57.35,1.16.71,1.74,1.07-.36.57-.72,1.16-1.07,1.73-.57-.36-1.16-.72-1.73-1.08.35-.56.71-1.15,1.06-1.72Z"/>
    </g>
    <g>
      <path class="cls-7" d="m203.11,109.18c-.16-.02-.32-.05-.48-.07-1.24-.1-2.44-.39-3.6-.83-.43-.16-.85-.34-1.25-.57-.7-.42-.85-1.29-.37-1.94.11-.15.17-.26.12-.46-.13-.5-.16-1.03-.1-1.54.05-.48.15-.96.27-1.43.3-1.14.85-2.17,1.53-3.12.3-.42.61-.82.94-1.21.37-.43.76-.85,1.15-1.26.15-.16.31-.3.47-.44.03-.03.11-.03.16-.01.4.2.81.37,1.26.45.26.04.52.08.78.08.94,0,1.88,0,2.81,0,.05,0,.12.04.16.07.84.84,1.61,1.74,2.26,2.74.61.95,1.08,1.96,1.33,3.06.16.68.15,1.37.13,2.06,0,.22-.08.45-.11.67,0,.07,0,.16.04.21.58.59.47,1.73-.38,2.14-.92.44-1.86.81-2.86,1.03-.54.12-1.09.19-1.63.28-.24.04-.48.05-.72.07-.02,0-.04.02-.07.03h-1.84Z"/>
      <path class="cls-7" d="m206.55,94.79c.22,0,.4,0,.57,0,1.03,0,2.02.66,2.38,1.62.13.35.17.7.16,1.07,0,.17-.25.37-.45.39-.24.02-.48-.14-.53-.39-.04-.17-.04-.34-.08-.51-.12-.58-.66-1.08-1.25-1.11-.64-.04-1.29-.03-1.93-.04-.51,0-1.02,0-1.53,0-.56-.01-1.08-.17-1.56-.45-.67-.38-1.18-.92-1.5-1.63-.22-.49-.35-.99-.33-1.53.01-.27.21-.48.47-.49.38,0,.76-.02,1.14,0,.66.04,1.29.18,1.85.56.05.03.16.03.21,0,.48-.3.99-.5,1.56-.53.48-.02.96-.03,1.44-.03.23,0,.47.24.47.51,0,.86-.28,1.6-.79,2.26-.04.05-.09.09-.13.13-.04.04-.08.08-.15.16Z"/>
    </g>
    <g>
      <path class="cls-7" d="m295,91.85c4,0,8.01,0,12.01,0,.03.02.06.05.09.06.28.09.53.39.49.8-1.01.37-1.91.93-2.68,1.68-.33.32-.62.67-.92,1.02-.52.6-.94,1.27-1.3,1.97-.38.73-.68,1.48-.9,2.27-.17.59-.29,1.18-.32,1.79,0,.06-.04.13-.09.17-.38.39-.78.77-1.16,1.17-.14.14-.24.31-.17.53.14.43.57.54.89.22.38-.38.77-.77,1.15-1.15.04-.04.1-.08.16-.09.55-.04,1.09-.14,1.63-.28,1.25-.32,2.4-.84,3.49-1.54.07-.04.14-.08.22-.12v6.28c-.07,0-.14,0-.2,0-1.38,0-2.77,0-4.15,0-1.97,0-3.93,0-5.9,0-.4,0-.61.26-.6.6.02.55,0,1.1,0,1.65,0,.11,0,.22-.03.32-.1.44-.64.72-1.07.52-.33-.16-.48-.41-.48-.78,0-5.27,0-10.54,0-15.81,0-.44-.02-.87-.18-1.28Z"/>
      <path class="cls-7" d="m293.53,91.85c.15.12.33.22.45.36.09.11.14.28.14.42.01,1.01,0,2.03,0,3.06-.4,0-.79.02-1.18,0-.19-.01-.3-.19-.39-.34v-2.94c.12-.27.31-.46.6-.56.13,0,.26,0,.39,0Z"/>
      <path class="cls-7" d="m303.44,100.98s.11-.05.15-.09c1.09-1.08,2.17-2.17,3.26-3.25.17-.17.19-.36.14-.57-.04-.18-.25-.33-.49-.32-.18,0-.3.07-.42.19-1.07,1.07-2.14,2.14-3.2,3.21-.04.04-.07.11-.13.14.2-.95.53-1.84,1.01-2.66.28-.48.57-.96.91-1.39.35-.45.76-.85,1.16-1.26.4-.41.88-.71,1.39-.97.6-.3,1.23-.53,1.91-.61.25-.03.49-.09.74-.1.41-.02.63.26.56.67-.06.38-.11.76-.18,1.14-.11.55-.33,1.06-.59,1.56-.37.7-.86,1.3-1.44,1.83-.59.54-1.23,1.02-1.93,1.42-.72.41-1.47.74-2.26.99-.18.06-.37.1-.55.15l-.05-.07Z"/>
      <path class="cls-7" d="m297.62,109.78c.29-.68.14-1.39.19-2.1.06,0,.12,0,.17,0,3.7,0,7.41,0,11.11,0,.39,0,.61.22.61.61,0,.3,0,.6-.17.86-.22.38-.56.62-1,.62-3.61,0-7.22,0-10.83,0-.02,0-.05,0-.1,0Z"/>
    </g>
    <rect class="cls-4" x="271.5" y="1.5" width="150" height="60" rx="10" ry="10"/>
    <rect class="cls-5" x="332.05" y="11.5" width="79.45" height="15.17" rx="7.59" ry="7.59"/>
    <rect class="cls-5" x="332.05" y="36.33" width="79.45" height="15.17" rx="7.59" ry="7.59"/>
    <text class="cls-1" transform="translate(281.53 19.41) scale(1.11 1)"><tspan class="cls-2" x="0" y="0">L</tspan><tspan class="cls-9" x="6.91" y="0">e</tspan><tspan class="cls-10" x="14.76" y="0">ve</tspan><tspan x="31.38" y="0">l</tspan></text>
  </g>
</svg>