<?xml version="1.0" encoding="UTF-8"?>
<svg id="Layer_2" data-name="Layer 2" xmlns="http://www.w3.org/2000/svg" viewBox="0 0 19.01 24">
  <defs>
    <style>
      .cls-1 {
        fill: #603913;
      }
    </style>
  </defs>
  <g id="Common">
    <g>
      <path class="cls-1" d="m8.22,24c-.22-.03-.44-.07-.67-.09-1.71-.14-3.35-.53-4.94-1.15-.59-.22-1.17-.47-1.71-.79-.96-.57-1.17-1.78-.51-2.66.15-.2.23-.36.16-.64-.17-.69-.21-1.41-.14-2.12.07-.66.2-1.32.37-1.96.41-1.57,1.16-2.98,2.1-4.29.41-.57.84-1.13,1.3-1.66.51-.6,1.05-1.16,1.58-1.73.2-.21.42-.41.65-.6.05-.04.16-.04.21-.01.55.28,1.12.51,1.73.61.35.06.71.11,1.07.12,1.29.01,2.58,0,3.86,0,.07,0,.16.05.22.1,1.16,1.15,2.22,2.39,3.11,3.76.84,1.3,1.48,2.69,1.83,4.2.22.93.21,1.88.18,2.83,0,.31-.11.61-.15.92-.01.09,0,.23.06.28.79.81.64,2.37-.53,2.94-1.26.61-2.56,1.11-3.92,1.41-.74.16-1.49.26-2.24.38-.33.05-.66.07-.98.1-.03,0-.06.03-.09.04h-2.53Z"/>
      <path class="cls-1" d="m12.93,4.23c.31,0,.55,0,.78,0,1.42-.01,2.78.9,3.27,2.22.18.48.23.97.22,1.47,0,.23-.34.51-.62.53-.33.03-.66-.19-.73-.53-.05-.23-.06-.47-.1-.7-.17-.8-.91-1.48-1.72-1.53-.88-.05-1.77-.04-2.66-.05-.7,0-1.41.01-2.11,0-.76-.02-1.48-.24-2.14-.61-.92-.52-1.62-1.26-2.07-2.23-.31-.67-.48-1.36-.46-2.1.01-.37.28-.66.65-.67.52-.01,1.05-.03,1.57,0,.9.05,1.77.25,2.54.77.07.05.21.05.28,0,.66-.41,1.36-.69,2.14-.73.66-.03,1.32-.04,1.98-.05.32,0,.64.34.65.7.01,1.18-.39,2.19-1.09,3.11-.05.07-.12.12-.18.18-.06.06-.11.12-.21.22Z"/>
    </g>
  </g>
</svg>