<?xml version="1.0" encoding="UTF-8"?>
<svg id="Layer_2" data-name="Layer 2" xmlns="http://www.w3.org/2000/svg" viewBox="0 0 21.92 24.59">
  <defs>
    <style>
      .cls-1 {
        fill: #603913;
      }
    </style>
  </defs>
  <g id="Common">
    <g>
      <path class="cls-1" d="m4.73,8.73h12.46c-2.08,3.6-4.15,7.18-6.23,10.79-2.08-3.61-4.15-7.19-6.23-10.79Z"/>
      <path class="cls-1" d="m.24,18.51c1.13-2.96,2.25-5.88,3.37-8.84,1.99,3.45,3.95,6.85,5.92,10.25,0,.02-.02.05-.03.07-3.09-.49-6.17-.99-9.26-1.48Z"/>
      <path class="cls-1" d="m12.34,20.01c1.99-3.45,3.97-6.87,5.97-10.33,1.13,2.96,2.24,5.88,3.37,8.83-3.12.5-6.21,1-9.34,1.5Z"/>
      <path class="cls-1" d="m16.91,7.27H5.01c.25-.32.48-.6.71-.89.39-.48.78-.97,1.17-1.45.38-.46.76-.92,1.14-1.39.46-.56.9-1.13,1.36-1.69.39-.48.78-.95,1.17-1.42.09-.11.2-.21.27-.33.09-.16.17-.11.25,0,.44.55.88,1.11,1.33,1.66.38.47.76.92,1.14,1.39.46.56.91,1.13,1.36,1.69.38.47.76.93,1.14,1.39.28.34.55.68.85,1.05Z"/>
      <path class="cls-1" d="m7.81,1.53c-.22.28-.45.56-.67.83-.46.58-.93,1.15-1.39,1.73-.46.56-.92,1.12-1.38,1.68-.31.38-.61.76-.91,1.14-.08.11-.15.17-.31.07-.77-.45-1.54-.88-2.32-1.32-.04-.02-.06-.07-.11-.12,2.35-1.36,4.7-2.71,7.04-4.07.01.02.03.04.04.05Z"/>
      <path class="cls-1" d="m14.13,1.48c2.36,1.36,4.71,2.72,7.08,4.09-.87.5-1.74,1-2.61,1.51-1.5-1.85-3.01-3.7-4.51-5.55.01-.02.03-.03.04-.05Z"/>
      <path class="cls-1" d="m3.12,20.44c.35.05.7.1,1.04.16.48.08.95.15,1.43.23.52.09,1.05.18,1.57.26.47.08.94.15,1.41.22.51.08,1.02.16,1.53.25.06.01.14.11.14.17,0,.94,0,1.89,0,2.87-2.4-1.38-4.77-2.75-7.14-4.12,0-.01,0-.02.01-.03Z"/>
      <path class="cls-1" d="m21.9,15.05c-.85-2.24-1.71-4.47-2.57-6.73.86-.5,1.71-.99,2.6-1.5v8.23s-.02,0-.03,0Z"/>
      <path class="cls-1" d="m18.78,20.48c-2.36,1.36-4.72,2.72-7.08,4.09v-3c2.37-.38,4.72-.76,7.08-1.14,0,.02,0,.03,0,.05Z"/>
      <path class="cls-1" d="m0,15.03V6.83c.87.5,1.73,1,2.59,1.49C1.73,10.57.88,12.8.03,15.04c0,0-.02,0-.03,0Z"/>
    </g>
  </g>
</svg>