<?xml version="1.0" encoding="UTF-8"?>
<svg id="Layer_2" data-name="Layer 2" xmlns="http://www.w3.org/2000/svg" viewBox="0 0 23.98 24">
  <defs>
    <style>
      .cls-1 {
        fill: #603913;
      }
    </style>
  </defs>
  <g id="Common">
    <g>
      <path class="cls-1" d="m0,20.44c.12-.34.29-.63.61-.82.44-.27,1.15-.21,1.53.17.67.68,1.35,1.36,2.04,2.04.38.37.46.81.32,1.28-.13.44-.45.73-.9.86-.03,0-.05.03-.07.04h-1.83s-.04-.04-.07-.05c-.65-.16-1.12-.56-1.42-1.15C.12,22.65.07,22.48,0,22.31c0-.62,0-1.25,0-1.87Z"/>
      <path class="cls-1" d="m0,22.31c.07.17.12.34.2.49.3.59.77.98,1.42,1.15.02,0,.04.03.07.05H0c0-.56,0-1.12,0-1.69Z"/>
      <path class="cls-1" d="m10.58,14.31c.09-.06.17-.1.23-.16,2.08-2.08,4.16-4.17,6.25-6.24.31-.31.27-.79.04-1.02-.25-.25-.76-.24-1.03.03-2.07,2.08-4.15,4.15-6.22,6.24-.17.17-.26.16-.42,0-.58-.6-1.18-1.19-1.77-1.78-.05-.05-.13-.09-.19-.13.57-.67,1.09-1.29,1.61-1.92.57-.69,1.12-1.38,1.69-2.07.51-.61,1.03-1.21,1.53-1.82.49-.59.97-1.19,1.46-1.78.43-.52.87-1.02,1.3-1.53.19-.23.38-.46.56-.7.23-.31.55-.44.92-.48.98-.13,1.95-.28,2.92-.42.71-.1,1.42-.19,2.14-.29.51-.07,1.01-.16,1.51-.23.48-.06.97.29.86.87-.09.49-.13.99-.2,1.48-.07.5-.15,1-.22,1.5-.07.49-.13.97-.2,1.46-.07.5-.15,1-.22,1.5-.03.23-.11.47-.1.7.02.45-.26.69-.56.94-.54.45-1.08.9-1.63,1.35-.59.49-1.19.97-1.79,1.46-.42.35-.83.71-1.25,1.06-.51.43-1.04.85-1.55,1.27-.41.34-.81.69-1.22,1.03-.42.35-.84.69-1.26,1.03-.3.24-.59.5-.89.73-.04.03-.17.03-.21,0-.69-.67-1.36-1.35-2.09-2.07Z"/>
      <path class="cls-1" d="m10.61,20.09c-.18-.1-.35-.16-.47-.27-1.96-1.95-3.9-3.91-5.87-5.85-.37-.36-.42-.91.11-1.3.36-.26.77-.42,1.2-.42.6,0,1.15.18,1.6.62,1.32,1.32,2.64,2.64,3.96,3.96.36.36.56.8.6,1.32.05.64-.14,1.18-.57,1.64-.13.14-.35.19-.54.3Z"/>
      <path class="cls-1" d="m5.18,16.87c.64.64,1.3,1.3,1.96,1.96-.65.65-1.31,1.3-1.96,1.95-.65-.65-1.3-1.31-1.95-1.96.63-.63,1.29-1.29,1.94-1.95Z"/>
    </g>
  </g>
</svg>