<?xml version="1.0" encoding="UTF-8"?>
<svg id="Layer_2" data-name="Layer 2" xmlns="http://www.w3.org/2000/svg" viewBox="0 0 150 70">
  <defs>
    <style>
      .cls-1 {
        font-family: Berenika-Bold, Berenika;
        font-size: 13px;
        font-weight: 700;
      }

      .cls-1, .cls-2 {
        fill: #8b5e3c;
      }

      .cls-3 {
        letter-spacing: -.02em;
      }

      .cls-4 {
        fill: #d8bb9a;
      }

      .cls-4, .cls-5 {
        opacity: .38;
      }

      .cls-6 {
        letter-spacing: -.01em;
      }

      .cls-5 {
        fill: #c49a6c;
      }

      .cls-7 {
        letter-spacing: 0em;
      }
    </style>
  </defs>
  <g id="Common">
    <g>
      <rect class="cls-4" x="1.5" y="1.5" width="147" height="67" rx="18.5" ry="18.5"/>
      <path class="cls-2" d="m130,3c9.37,0,17,7.63,17,17v30c0,9.37-7.63,17-17,17H20c-9.37,0-17-7.63-17-17v-30C3,10.63,10.63,3,20,3h110m0-3H20C8.95,0,0,8.95,0,20v30c0,11.05,8.95,20,20,20h110c11.05,0,20-8.95,20-20v-30c0-11.05-8.95-20-20-20h0Z"/>
    </g>
    <g>
      <path class="cls-5" d="m70,29c-4.96,0-9-4.04-9-9s4.04-9,9-9h60c4.96,0,9,4.04,9,9s-4.04,9-9,9h-60Z"/>
      <path class="cls-2" d="m130,12c4.41,0,8,3.59,8,8s-3.59,8-8,8h-60c-4.41,0-8-3.59-8-8s3.59-8,8-8h60m0-2h-60c-5.52,0-10,4.48-10,10h0c0,5.52,4.48,10,10,10h60c5.52,0,10-4.48,10-10h0c0-5.52-4.48-10-10-10h0Z"/>
    </g>
    <g>
      <path class="cls-5" d="m70,59c-4.96,0-9-4.04-9-9s4.04-9,9-9h59.45c4.96,0,9,4.04,9,9s-4.04,9-9,9h-59.45Z"/>
      <path class="cls-2" d="m129.45,42c4.41,0,8,3.59,8,8s-3.59,8-8,8h-59.45c-4.41,0-8-3.59-8-8s3.59-8,8-8h59.45m0-2h-59.45c-5.52,0-10,4.48-10,10s4.48,10,10,10h59.45c5.52,0,10-4.48,10-10s-4.48-10-10-10h0Z"/>
    </g>
    <text class="cls-1" transform="translate(12.67 22.61) scale(1.11 1)"><tspan class="cls-3" x="0" y="0">L</tspan><tspan class="cls-6" x="6.91" y="0">e</tspan><tspan class="cls-7" x="14.76" y="0">ve</tspan><tspan x="31.38" y="0">l</tspan></text>
    <path class="cls-2" d="m130,12c4.41,0,8,3.59,8,8s-3.59,8-8,8-8-3.59-8-8,3.59-8,8-8m0-2c-5.52,0-10,4.48-10,10h0c0,5.52,4.48,10,10,10s10-4.48,10-10h0c0-5.52-4.48-10-10-10h0Z"/>
    <path class="cls-2" d="m130,42c4.41,0,8,3.59,8,8s-3.59,8-8,8-8-3.59-8-8,3.59-8,8-8m0-2c-5.52,0-10,4.48-10,10h0c0,5.52,4.48,10,10,10s10-4.48,10-10h0c0-5.52-4.48-10-10-10h0Z"/>
  </g>
</svg>