<?xml version="1.0" encoding="UTF-8"?>
<svg id="Layer_2" data-name="Layer 2" xmlns="http://www.w3.org/2000/svg" viewBox="0 0 90 80">
  <defs>
    <style>
      .cls-1 {
        fill: #414042;
      }
    </style>
  </defs>
  <g id="Core">
    <path class="cls-1" d="m89.98,29.28c-.04,1.41-.41,3.67-.81,5.02-1.36,4.65-3.42,8.92-6.18,12.79-1.43,2-2.9,3.97-4.48,5.84-1.78,2.1-3.6,4.18-5.57,6.08-2.63,2.55-5.41,4.94-8.16,7.35-4.44,3.88-9.22,7.29-14.11,10.55-1.33.89-2.66,1.79-4.03,2.62-.53.32-1.08.49-1.64.47-.55.02-1.11-.15-1.64-.47-1.37-.83-2.7-1.73-4.03-2.62-4.89-3.25-9.67-6.67-14.11-10.55-2.76-2.41-5.53-4.8-8.16-7.35-1.97-1.9-3.79-3.98-5.57-6.08-1.58-1.87-3.06-3.84-4.48-5.84-2.24-3.13-4.01-6.52-5.33-10.17C.81,34.53.12,32.05.03,29.5c-.09-2.43.04-4.9.38-7.31.29-2,.93-3.97,1.61-5.88.96-2.69,2.39-5.12,4.21-7.3,1.66-2,3.47-3.82,5.63-5.24,2.64-1.73,5.46-2.9,8.57-3.44,2.9-.5,5.74-.4,8.59.16,2.6.5,5,1.51,7.26,2.93,2.64,1.65,4.94,3.67,6.78,6.24.64.89,1.26,1.78,1.93,2.74.67-.95,1.29-1.85,1.93-2.74,1.84-2.56,4.15-4.58,6.78-6.24,2.26-1.42,4.66-2.43,7.26-2.93,2.85-.56,5.7-.66,8.59-.16,3.11.54,5.93,1.71,8.57,3.44,2.17,1.43,3.98,3.24,5.64,5.24,1.81,2.19,3.25,4.62,4.21,7.3.68,1.91,1.33,3.88,1.61,5.88.34,2.33.46,4.73.39,7.09Z"/>
  </g>
</svg>