<?xml version="1.0" encoding="utf-8"?>
<!-- Generator: Adobe Illustrator 27.6.0, SVG Export Plug-In . SVG Version: 6.00 Build 0)  -->
<svg version="1.1" xmlns="http://www.w3.org/2000/svg" xmlns:xlink="http://www.w3.org/1999/xlink" x="0px" y="0px"
	 viewBox="0 0 773.1 300" style="enable-background:new 0 0 773.1 300;" xml:space="preserve">
<style type="text/css">
	.st0{fill:#1E1E1E;}
	.st1{fill-rule:evenodd;clip-rule:evenodd;fill:#FFFFFF;}
	.st2{fill:#FFFFFF;}
</style>
<g id="Layer_2">
	<rect x="0" y="0" class="st0" width="773.1" height="300"/>
</g>
<g id="Layer_1">
	<path class="st1" d="M24.4,4c-8.3,0-15,2.7-15,6v10c0,3.3,6.7,6,15,6s15-2.7,15-6V10C39.4,6.7,32.7,4,24.4,4z M24.4,13
		c6.1,0,10.5-1.3,10.5-3c0-1.7-4.4-3-10.5-3s-10.5,1.3-10.5,3C13.9,11.7,18.3,13,24.4,13z"/>
	<path class="st2" d="M37.4,68V53c0-4.3-2.6-13-13-13s-13,8.7-13,13v15h7V57c0-1.8,1.2-5.5,6-5.5s6,3.7,6,5.5v11H37.4z"/>
	<path class="st1" d="M26.9,82.4l1.2,6.1c0.1,0.3,0.3,0.4,0.6,0.4l8.5-1.7c0.4-0.1,0.7,0.4,0.5,0.7L35,93c-0.1,0.3,0,0.6,0.2,0.7
		l9.1,4.3c0.4,0.2,0.4,0.7,0,0.9l-5.1,2.3c-0.3,0.1-0.4,0.4-0.2,0.7l3.9,8.2c0.2,0.4-0.1,0.8-0.5,0.7l-5.6-0.8
		c-0.3,0-0.5,0.1-0.6,0.4l-0.8,4.2l-0.9,5.2c-0.1,0.4-0.6,0.6-0.9,0.2l-3.5-4.6c-0.2-0.2-0.5-0.3-0.8-0.1l-7.4,7.4
		c-0.3,0.3-0.8,0.1-0.8-0.3l-0.8-5.9c0-0.3-0.3-0.5-0.6-0.4l-8.9,2.1c-0.4,0.1-0.8-0.3-0.6-0.7l2.8-5.6c0.1-0.2,0-0.5-0.2-0.7
		l-8.2-4.3c-0.4-0.2-0.4-0.7,0-0.9l5.2-2.8c0.2-0.1,0.3-0.4,0.2-0.7l-4.7-8.1c-0.2-0.4,0.1-0.8,0.5-0.7l5.9,1.2
		c0.3,0.1,0.6-0.1,0.6-0.4l0.9-9.4c0-0.4,0.6-0.6,0.9-0.3l4.4,4.4c0.2,0.2,0.5,0.2,0.7,0l7-7C26.3,81.9,26.8,82,26.9,82.4z
		 M26.5,95.9l-1.3-3.2c-0.2-0.4-0.8-0.4-0.9,0L23,95.9c-0.1,0.3-0.5,0.4-0.7,0.2l-2.9-1.9c-0.4-0.2-0.9,0.1-0.8,0.5l0.9,3.4
		c0.1,0.3-0.1,0.6-0.5,0.6L15.5,99c-0.5,0-0.6,0.6-0.3,0.9l2.7,2.2c0.2,0.2,0.2,0.6,0,0.8l-2.7,2.2c-0.3,0.3-0.2,0.9,0.3,0.9
		l3.5,0.2c0.3,0,0.5,0.3,0.5,0.6l-0.9,3.4c-0.1,0.4,0.4,0.8,0.8,0.5l2.9-1.9c0.3-0.2,0.6-0.1,0.7,0.2l1.3,3.2c0.2,0.4,0.8,0.4,0.9,0
		l1.3-3.2c0.1-0.3,0.5-0.4,0.7-0.2l2.9,1.9c0.4,0.2,0.9-0.1,0.8-0.5l-0.9-3.4c-0.1-0.3,0.1-0.6,0.5-0.6l3.5-0.2
		c0.5,0,0.6-0.6,0.3-0.9l-2.7-2.2c-0.2-0.2-0.2-0.6,0-0.8l2.7-2.2c0.3-0.3,0.2-0.9-0.3-0.9l-3.5-0.2c-0.3,0-0.5-0.3-0.5-0.6l0.9-3.4
		c0.1-0.4-0.4-0.8-0.8-0.5l-2.9,1.9C26.9,96.3,26.6,96.2,26.5,95.9z"/>
	<g>
		<path class="st2" d="M22.6,142.8v1.8h2.3v-1.8H22.6z"/>
		<path class="st2" d="M26.2,151.5v1.8h1.8v-1.8H26.2z"/>
		<path class="st1" d="M15.2,135v26.1h18.3V135H15.2z M18,144.6v-1.8h4.6h2.3h6.9v1.8h-6.9h-2.3H18z M29,147.4v1.8h-6h-2.3H18v-1.8
			h2.8H23H29z M31.3,151.5v1.8h-3.2h-1.8H18v-1.8h8.2h1.8H31.3z"/>
		<path class="st1" d="M23,149.2h-2.3v-1.8H23V149.2z"/>
		<path class="st2" d="M7.9,133.2v3.7h0.9v28.4H7.9v3.7h5v-1.8h22.9v1.8h5v-3.7H40v-28.4h0.9v-3.7h-5v30.7H13v-30.7H7.9z"/>
	</g>
	<path class="st1" d="M15,185.6c-4.4,4-8.2,7.5-8.2,13.9c0,10,11,12.9,19.3,12.9S43,209.3,43,199.9c0-4.7-4.5-7.4-9.3-10.3
		c-4.3-2.6-8.8-5.3-10.9-9.8c-0.3-0.7-1.3-0.8-1.8-0.3C19.1,181.9,17,183.8,15,185.6z M17.1,188c-2.6,2.3-5,4.6-5,7.2
		c0,4,4.4,6.2,9.3,6.2s10.6-2.7,8-6.2c-1.1-1.4-2.6-1.9-4-2.4c-2.5-0.8-4.8-1.6-4.5-7.1c0-0.4-0.6-0.7-0.9-0.4
		C19.1,186.2,18.1,187.1,17.1,188z"/>
	<path class="st2" d="M11.9,228.5c0-0.6,0.4-1,1-1h24c0.6,0,1,0.4,1,1v16c0,0.6-0.4,1-1,1h-21v13c0,0.6-0.4,1-1,1h-2
		c-0.6,0-1-0.4-1-1v-13V228.5z"/>
	<g>
		<path class="st1" d="M24.7,295c7.2,0,13-5.8,13-13c0-7.2-5.8-13-13-13s-13,5.8-13,13C11.7,289.2,17.5,295,24.7,295z M24.7,290.8
			c4.8,0,8.8-3.9,8.8-8.8c0-4.8-3.9-8.8-8.8-8.8S16,277.2,16,282C16,286.9,19.9,290.8,24.7,290.8z"/>
		<path class="st2" d="M29.2,282c0,2.5-2,4.5-4.5,4.5s-4.5-2-4.5-4.5c0-2.5,2-4.5,4.5-4.5S29.2,279.6,29.2,282z"/>
	</g>
	<g>
		<path class="st1" d="M84.7,18.3l-4.4-1c-0.5-0.1-0.7-0.7-0.3-1l3-3.4c0.4-0.5,0-1.2-0.6-1L78,13.1c-0.5,0.1-0.9-0.3-0.8-0.8
			L78.4,8c0.2-0.6-0.6-1-1-0.6L74,10.5c-0.3,0.3-0.9,0.2-1-0.3l-1-4.4c-0.1-0.6-1-0.7-1.2-0.1L69.3,10c-0.2,0.5-0.7,0.6-1.1,0.2
			l-3-3.4c-0.4-0.5-1.2-0.1-1.1,0.5l0.7,4.5c0,0.2,0,0.3-0.1,0.4l4.1,2.6c0.6-0.2,1.2-0.3,1.8-0.3c2.9,0,5.3,2.4,5.3,5.3
			c0,2.9-2.4,5.3-5.3,5.3c-2.9,0-5.3-2.3-5.3-5.2L59,16.6l-2.2,0.2c-0.6,0.1-0.8,0.9-0.2,1.2l4.1,2c0.4,0.2,0.5,0.8,0.1,1.1L57,23.6
			c-0.5,0.3-0.3,1.2,0.4,1.1l4.5-0.1c0.5,0,0.8,0.5,0.6,0.9l-2.1,4c-0.3,0.5,0.3,1.1,0.9,0.8l3.9-2.2c0.4-0.2,0.9,0.1,0.9,0.5l0,4.5
			c0,0.6,0.8,0.9,1.1,0.3l2.5-3.8c0.3-0.4,0.9-0.4,1.1,0.1l2.1,4c0.3,0.5,1.1,0.4,1.2-0.2l0.4-4.5c0-0.5,0.6-0.7,1-0.5l3.7,2.6
			c0.5,0.4,1.2-0.2,0.9-0.7l-1.7-4.2c-0.2-0.4,0.2-0.9,0.7-0.9l4.5,0.6c0.6,0.1,1-0.7,0.5-1.1l-3.5-2.9c-0.4-0.3-0.3-0.9,0.2-1.1
			l4.2-1.6C85.4,19.3,85.3,18.4,84.7,18.3z"/>
		<path class="st1" d="M74,19.8c0,1.9-1.5,3.4-3.4,3.4c-1.4,0-2.6-0.9-3.2-2.1c0-0.1,0-0.1-0.1-0.2c-0.1-0.4-0.2-0.8-0.2-1.2
			c0-0.3,0-0.6,0.1-1v0L61.8,16L55,12.5c-0.3-0.2-0.4-0.6-0.2-0.9l1.3-2c0.2-0.3,0.6-0.4,0.9-0.2l2.3,1.5l9.5,6.1
			c0.4-0.3,0.9-0.5,1.5-0.5c0.1,0,0.3,0,0.5,0c0.1,0,0.3,0,0.4,0h0C72.7,16.6,74,18.1,74,19.8z"/>
		<path class="st1" d="M75.6,22.2L75.6,22.2C75.7,22.2,75.7,22.2,75.6,22.2C75.7,22.2,75.6,22.2,75.6,22.2z"/>
	</g>
	<g>
		<path class="st2" d="M62.1,52.2c-0.1,0-0.2,0.1-0.2,0.2v5.3c0,0.1,0.1,0.2,0.2,0.2h2.6c0.1,0,0.2,0.1,0.2,0.2v16.5
			c0,0.1,0.1,0.2,0.2,0.2h3.8c0.1,0,0.2-0.1,0.2-0.2v-6.9c0-0.1,0.1-0.2,0.2-0.2h3c0.1,0,0.2,0.1,0.2,0.2v6.9c0,0.1,0.1,0.2,0.2,0.2
			h3.8c0.1,0,0.2-0.1,0.2-0.2V58c0-0.1,0.1-0.2,0.2-0.2h2.6c0.1,0,0.2-0.1,0.2-0.2v-5.3c0-0.1-0.1-0.2-0.2-0.2h-2.8
			c-0.1,0-0.2,0.1-0.2,0.2v1.9c0,0.1-0.1,0.2-0.2,0.2h-3c-0.1,0-0.2-0.1-0.2-0.2v-1.9c0-0.1-0.1-0.2-0.2-0.2h-4.1
			c-0.1,0-0.2,0.1-0.2,0.2v1.9c0,0.1-0.1,0.2-0.2,0.2h-3c-0.1,0-0.2-0.1-0.2-0.2v-1.9c0-0.1-0.1-0.2-0.2-0.2H62.1z"/>
		<path class="st2" d="M69,50.2c-0.1,0.1-0.3,0-0.3-0.2v-6.8c0-0.1,0.2-0.2,0.3-0.2l5.6,3.4c0.1,0.1,0.1,0.2,0,0.3L69,50.2z"/>
		<path class="st2" d="M53.3,57.5c0-0.1,0.1-0.2,0.2-0.2h1.3c0.1,0,0.2,0.1,0.2,0.2v1.7c0,0.1,0.1,0.2,0.2,0.2H57
			c0.1,0,0.2-0.1,0.2-0.2v-1.7c0-0.1,0.1-0.2,0.2-0.2h1.3c0.1,0,0.2,0.1,0.2,0.2v1.7c0,0.1,0.1,0.2,0.2,0.2h3.6
			c0.1,0,0.2,0.1,0.2,0.2v15c0,0.1-0.1,0.2-0.2,0.2h-6.6c-0.1,0-0.2-0.1-0.2-0.2V62.9c0-0.1-0.1-0.2-0.2-0.2h-2.3
			c-0.1,0-0.2-0.1-0.2-0.2V57.5z"/>
		<path class="st2" d="M88.2,57.5c0-0.1-0.1-0.2-0.2-0.2h-1.3c-0.1,0-0.2,0.1-0.2,0.2v1.7c0,0.1-0.1,0.2-0.2,0.2h-1.9
			c-0.1,0-0.2-0.1-0.2-0.2v-1.7c0-0.1-0.1-0.2-0.2-0.2h-1.3c-0.1,0-0.2,0.1-0.2,0.2v1.7c0,0.1-0.1,0.2-0.2,0.2h-3.6
			c-0.1,0-0.2,0.1-0.2,0.2v15c0,0.1,0.1,0.2,0.2,0.2h6.6c0.1,0,0.2-0.1,0.2-0.2V62.9c0-0.1,0.1-0.2,0.2-0.2H88
			c0.1,0,0.2-0.1,0.2-0.2V57.5z"/>
	</g>
	<path class="st2" d="M66.3,94.1c0-0.2-0.1-0.3-0.1-0.5c0.1-2.4,2.1-4.3,4.5-4.3c2.4,0,4.4,1.9,4.5,4.3c0,0.2,0,0.3-0.1,0.5
		l-3.7,14.1c-0.1,0.4-0.4,0.6-0.8,0.6c-0.4,0-0.7-0.3-0.8-0.6L66.3,94.1z"/>
	<path class="st2" d="M73.7,115c0,1.6-1.3,2.9-2.9,2.9c-1.6,0-2.9-1.3-2.9-2.9s1.3-2.9,2.9-2.9C72.4,112.1,73.7,113.4,73.7,115z"/>
	<path class="st2" d="M58.7,134.1c-0.2,0-0.3,0.1-0.3,0.3v7.9c0,0.2,0.1,0.3,0.3,0.3h3.9c0.2,0,0.3,0.1,0.3,0.3v24.8
		c0,0.2,0.1,0.3,0.3,0.3h5.6c0.2,0,0.3-0.1,0.3-0.3v-10.4c0-0.2,0.1-0.3,0.3-0.3h4.5c0.2,0,0.3,0.1,0.3,0.3v10.4
		c0,0.2,0.1,0.3,0.3,0.3h5.6c0.2,0,0.3-0.1,0.3-0.3v-24.8c0-0.2,0.1-0.3,0.3-0.3h3.9c0.2,0,0.3-0.1,0.3-0.3v-7.9
		c0-0.2-0.1-0.3-0.3-0.3h-4.2c-0.2,0-0.3,0.1-0.3,0.3v2.8c0,0.2-0.1,0.3-0.3,0.3h-4.5c-0.2,0-0.3-0.1-0.3-0.3v-2.8
		c0-0.2-0.1-0.3-0.3-0.3h-6.2c-0.2,0-0.3,0.1-0.3,0.3v2.8c0,0.2-0.1,0.3-0.3,0.3h-4.5c-0.2,0-0.3-0.1-0.3-0.3v-2.8
		c0-0.2-0.1-0.3-0.3-0.3H58.7z"/>
	<path class="st2" d="M58.3,187.5v28.3c0,0.2,0.2,0.4,0.4,0.4h8.6c0.2,0,0.4-0.2,0.4-0.4v-15.9c0-0.2,0.2-0.4,0.4-0.4h6.9
		c0.2,0,0.4,0.2,0.4,0.4v15.9c0,0.2,0.2,0.4,0.4,0.4h8.6c0.2,0,0.4-0.2,0.4-0.4v-28.3H58.3z"/>
	<g>
		<path class="st1" d="M60.1,256.3l2.5-25.8c0-0.5,0.4-0.8,0.9-0.8h3.8c0.2,0,0.4,0.1,0.6,0.2l3.2,2.8c0.3,0.3,0.9,0.3,1.2,0
			l3.2-2.8c0.2-0.1,0.4-0.2,0.6-0.2h3.8c0.5,0,0.8,0.3,0.9,0.8l0.9,9l0.6,6.1l0.5,5.2l0,0.2l0.5,5.3c0.1,0.5-0.4,1-0.9,1h-3.5H61
			C60.5,257.3,60.1,256.8,60.1,256.3z M68.3,234.4l-0.7,0.7c-0.2,0.2-0.2,0.5,0.1,0.7l1.9,1.3l-1.9,1.3c-0.2,0.2-0.3,0.5-0.1,0.7
			l0.7,0.7c0.2,0.2,0.4,0.2,0.6,0l2.6-1.8l2.6,1.8c0.2,0.1,0.4,0.1,0.6,0l0.7-0.7c0.2-0.2,0.2-0.5-0.1-0.7l-1.9-1.3l1.9-1.3
			c0.2-0.2,0.3-0.5,0.1-0.7l-0.7-0.7c-0.2-0.2-0.4-0.2-0.6,0l-2.6,1.8l-2.6-1.8C68.7,234.2,68.4,234.2,68.3,234.4z M68.3,240.6
			l-0.7,0.7c-0.2,0.2-0.2,0.5,0.1,0.7l1.9,1.3l-1.9,1.3c-0.2,0.2-0.3,0.5-0.1,0.7l0.7,0.7c0.2,0.2,0.4,0.2,0.6,0l2.6-1.8l2.6,1.8
			c0.2,0.1,0.4,0.1,0.6,0l0.7-0.7c0.2-0.2,0.2-0.5-0.1-0.7l-1.9-1.3l1.9-1.3c0.2-0.2,0.3-0.5,0.1-0.7l-0.7-0.7
			c-0.2-0.2-0.4-0.2-0.6,0l-2.6,1.8l-2.6-1.8C68.7,240.4,68.4,240.5,68.3,240.6z"/>
		<path class="st2" d="M89.7,234.3l-7.4-4.2c-0.3-0.2-0.7,0.1-0.7,0.4l0.4,4.4c0,0,0,0.1,0,0.1l1.3,3l1.4,3.3
			c0.1,0.3,0.6,0.4,0.8,0.1l2-3.1l2.2-3.3C89.9,234.7,89.9,234.4,89.7,234.3z"/>
		<path class="st2" d="M53.7,234.3l7.4-4.2c0.3-0.2,0.7,0.1,0.7,0.4l-0.4,4.4c0,0,0,0.1,0,0.1l-2.8,6.3c-0.1,0.3-0.6,0.4-0.8,0.1
			l-4.2-6.5C53.4,234.7,53.5,234.4,53.7,234.3z"/>
	</g>
	<path class="st1" d="M58.7,274.6l12.8-10.9l12.8,10.9l-8.1,20.1h-9.4L58.7,274.6z M68.4,293L62,275.3l4.4,1.7l5.1-11.2l5.1,11.2
		l4.4-1.7L74.5,293h-1l2-15h-8.1l2,15H68.4z"/>
	<path class="st1" d="M126.6,33l0.3-2.7c0-0.1,0.1-0.2,0.1-0.2l5.1-3.6c1.2-0.8,1.8-2.1,1.8-3.6v-7.1c0-0.9-0.3-1.9-0.9-2.6
		l-3.6-4.9c-0.6-0.8-1.5-1.4-2.4-1.6c-0.1,0-0.2,0-0.3-0.1c-0.1,0-0.3-0.1-0.4-0.1c-0.7-0.2-2.6-0.6-5.9-0.6s-5.2,0.4-5.9,0.6
		c-0.1,0-0.3,0.1-0.4,0.1c-0.1,0-0.2,0-0.3,0.1c-1,0.2-1.8,0.8-2.4,1.6l-3.6,4.9c-0.6,0.8-0.9,1.7-0.9,2.6v7.1
		c0,1.4,0.7,2.8,1.8,3.6l5.1,3.6c0.1,0.1,0.1,0.1,0.1,0.2l0.3,2.7c0,0.2,0.1,0.3,0.3,0.3c0,0,0,0,0,0c0.2,0,3.8,0.3,5.8,0.3
		c2,0,5.6-0.3,5.8-0.3c0,0,0,0,0,0C126.4,33.2,126.5,33.1,126.6,33z M111.7,22.1l1.9,1.3c0.2,0.1,0.4,0.2,0.7,0.2
		c1.5-0.4,3.4-3.1,4-4.9c0.1-0.3,0-0.7-0.2-1l-1.7-2.1c-0.4-0.5-1-0.6-1.5-0.3l-3,1.8c-0.4,0.2-0.6,0.6-0.6,1v2.9
		C111.1,21.5,111.3,21.9,111.7,22.1z M129.2,22.1l-1.9,1.3c-0.2,0.1-0.4,0.2-0.7,0.2c-1.5-0.4-3.4-3.1-4-4.9c-0.1-0.3,0-0.7,0.2-1
		l1.7-2.1c0.4-0.5,1-0.6,1.5-0.3l3,1.8c0.4,0.2,0.6,0.6,0.6,1v2.9C129.7,21.5,129.5,21.9,129.2,22.1z M119.5,23.8
		c0.1-0.1,0.5-0.3,0.8-0.3c0,0,0,0,0,0c0.3,0,0.7,0.2,0.8,0.3c0,0,0,0,0.1,0c0,0.1,0.1,0.1,0.1,0.2l0.8,3.6c0,0.2,0,0.3-0.2,0.4
		c0,0,0,0-0.1,0l-1.5,0.3c0,0,0,0,0,0c0,0,0,0-0.1,0l-1.5-0.3c0,0,0,0-0.1,0c-0.1-0.1-0.2-0.2-0.2-0.4l0.8-3.6
		C119.4,24,119.4,23.9,119.5,23.8C119.5,23.8,119.5,23.8,119.5,23.8z"/>
	<path class="st1" d="M149.1,20.4v-3.5c0-3.4,2.7-6.2,6.1-6.2H174c3.3,0,6.1,2.8,6.1,6.2v3.5h-8.9l-0.6,2.8h9.4l-2,10.4h-26.3
		l-2-10.4h8.8l-0.6-2.8H149.1z M161.9,29.4h5.4l-0.8-5.4c0.4-0.2,0.8-0.5,1.1-0.9c0.6-0.7,1-1.7,1-2.8c0-0.2,0-0.4,0-0.6
		c0,0,0-0.1,0-0.1c-0.1-0.5-0.2-1-0.5-1.4c-0.7-1.2-2-2.1-3.5-2.1c-1.5,0-2.8,0.8-3.5,2.1c-0.3,0.5-0.4,1-0.5,1.5c0,0,0,0,0,0.1
		c0,0.2,0,0.3,0,0.5c0,0.8,0.2,1.6,0.6,2.3c0.1,0.2,0.2,0.4,0.4,0.5c0.3,0.4,0.7,0.7,1.1,0.9L161.9,29.4z"/>
	<path class="st2" d="M125,92.3c-0.3-0.4-0.7-0.4-1.2-0.3c-5.9,2-20.4,4.5-21.2,12.9c-0.6,6.2,1.1,11.8,1.8,13.5
		c0.1,0.2,0.3,0.3,0.6,0.3h1.6c0.4,0,0.7-0.3,0.7-0.7v-1.7c0-0.2,0.1-0.3,0.3-0.3c6.6-0.6,18.9-3.8,19.2-12.1
		C127.1,97,125.9,93.6,125,92.3z M121,96.4c-6.2,4.3-12.2,12-14.8,15.9c-0.1,0.1-0.3,0.1-0.3-0.1c0.2-5,3.2-13.3,14.9-16.1
		C121.1,96,121.2,96.2,121,96.4z"/>
	<path class="st2" d="M100,136.8c-2.2,2.2-2.2,5.9,0,8.1l12.2,11.9c0.1,0.1,0.3,0.1,0.5,0l12.2-11.9c2.2-2.2,2.2-5.9,0-8.1
		c-2.2-2.2-5.9-2.2-8.1,0l-4.2,3.8c-0.1,0.1-0.3,0.1-0.5,0l-4.1-3.8C105.9,134.6,102.2,134.6,100,136.8z"/>
	<path class="st2" d="M203.4,168l4.1,10.5h11.1l-7.7,8.3l2.4,10.8l-9.8-5.4l-9.8,5.4l2.4-10.8l-7.7-8.3h11.1L203.4,168z"/>
	<g>
		<path class="st2" d="M110.6,63.5l8.4-8.4l8.4,8.4l-8.4,8.4L110.6,63.5z"/>
		<path class="st1" d="M102.9,63.5l16.2-16.2l16.2,16.2l-16.2,16.2L102.9,63.5z M119.1,51l-12.5,12.5l12.5,12.5l12.5-12.5L119.1,51z
			"/>
	</g>
	<path class="st2" d="M157.2,61l2,20.5H170l2-20.5l-4.7-2.6c0.5-0.2,1-0.5,1.4-0.8c0.4-0.3,0.7-0.6,1-0.9c0.7-0.8,1.2-1.8,1.5-2.9
		c0.1-0.5,0.2-1,0.2-1.5c0-3.7-3-6.7-6.7-6.7c-3.7,0-6.7,3-6.7,6.7c0,0.7,0.1,1.3,0.3,1.9c0.4,1.4,1.2,2.5,2.3,3.4
		c0.4,0.3,0.9,0.6,1.5,0.9L157.2,61z"/>
	<g>
		<path class="st2" d="M181.1,107.9h-31.7c-0.2,0-0.3,0.2-0.3,0.3v3.9c0,0.3,0.3,0.4,0.5,0.3l1.8-1c0.1,0,0.1,0,0.2,0h0.6
			c0.2,0,0.3,0.2,0.3,0.3v10.7c0,1.9,1.5,3.5,3.4,3.5H174c1.9,0,3.4-1.5,3.4-3.5v-10.7c0-0.2,0.2-0.3,0.3-0.3h0.6c0,0,0.1,0,0.1,0
			l2.5,0.9c0.2,0.1,0.4-0.1,0.4-0.3v-3.7C181.5,108.1,181.3,107.9,181.1,107.9z"/>
		<path class="st2" d="M152.5,105.9v-1.4c0-1.1,0.9-2.1,2-2.1h9.4V101h-1.3c-0.4,0-0.7-0.3-0.7-0.7V99c0-0.4,0.3-0.7,0.7-0.7h5.4
			c0.4,0,0.7,0.3,0.7,0.7v1.4c0,0.4-0.3,0.7-0.7,0.7h-1.3v1.4h9.4c1.1,0,2,0.9,2,2.1v1.4H152.5z"/>
	</g>
	<path class="st1" d="M129.8,181c0-0.1,0-0.2-0.1-0.2l-4.2-4.2c-0.1-0.1-0.1-0.1-0.2-0.1h-20.6c-0.1,0-0.2,0-0.2,0.1l-4.2,4.2
		c-0.1,0.1-0.1,0.1-0.1,0.2v20.6c0,0.1,0,0.2,0.1,0.2l4.2,4.2c0.1,0.1,0.1,0.1,0.2,0.1h20.6c0.1,0,0.2,0,0.2-0.1l4.2-4.2
		c0.1-0.1,0.1-0.1,0.1-0.2V181z M107.7,202c-0.1,0-0.2,0-0.2-0.1l-3.2-3.2c-0.1-0.1-0.1-0.1-0.1-0.2V198c0-0.2,0.2-0.3,0.3-0.3h16.5
		c0.2,0,0.3-0.2,0.3-0.3v-16.5c0-0.2,0.2-0.3,0.3-0.3h0.5c0.1,0,0.2,0,0.2,0.1l3.2,3.2c0.1,0.1,0.1,0.1,0.1,0.2v14.5
		c0,0.1,0,0.2-0.1,0.2l-3.2,3.2c-0.1,0.1-0.1,0.1-0.2,0.1H107.7z M104.2,183.9v-3c0-0.2,0.2-0.3,0.3-0.3h3h0.7
		c0.2,0,0.3,0.2,0.3,0.3v3.7c0,0.2-0.2,0.3-0.3,0.3h-3.7c-0.2,0-0.3-0.2-0.3-0.3V183.9z M112.7,189.2c0.2,0,0.3-0.2,0.3-0.3v-8.1
		c0-0.2,0.2-0.3,0.3-0.3h3.4c0.2,0,0.3,0.2,0.3,0.3v9.6c0,0.1,0,0.2-0.1,0.2l-2.5,2.5c-0.1,0.1-0.1,0.1-0.2,0.1h-9.6
		c-0.2,0-0.3-0.2-0.3-0.3v-3.4c0-0.2,0.2-0.3,0.3-0.3H112.7z"/>
	<path class="st1" d="M174.9,182.8c0.1,0,0.2,0,0.2,0.1l4.2,4.2c0.1,0.1,0.1,0.1,0.1,0.2V208c0,0.1,0,0.2-0.1,0.2l-4.2,4.2
		c-0.1,0.1-0.1,0.1-0.2,0.1h-20.6c-0.1,0-0.2,0-0.2-0.1l-4.2-4.2c-0.1-0.1-0.1-0.1-0.1-0.2v-20.6c0-0.1,0-0.2,0.1-0.2l4.2-4.2
		c0.1-0.1,0.1-0.1,0.2-0.1H174.9z M175.4,190.4c0-0.1,0-0.2-0.1-0.2l-3.2-3.2c-0.1-0.1-0.1-0.1-0.2-0.1h-0.5c-0.2,0-0.3,0.2-0.3,0.3
		v8.1c0,0.2-0.2,0.3-0.3,0.3h-12.1c-0.2,0-0.3-0.2-0.3-0.3v-8.1c0-0.2-0.2-0.3-0.3-0.3h-0.5c-0.1,0-0.2,0-0.2,0.1l-3.2,3.2
		c-0.1,0.1-0.1,0.1-0.1,0.2v5.8c0,0.1,0,0.2,0.1,0.2l3.2,3.2c0.1,0.1,0.1,0.1,0.2,0.1h14.5c0.1,0,0.2,0,0.2-0.1l3.2-3.2
		c0.1-0.1,0.1-0.1,0.1-0.2V190.4z M166.3,186.9c0.2,0,0.3,0.2,0.3,0.3v3.7c0,0.2-0.2,0.3-0.3,0.3h-3.4c-0.2,0-0.3-0.2-0.3-0.3v-3.7
		c0-0.2,0.2-0.3,0.3-0.3H166.3z M157.3,208.4c-0.1,0-0.2,0-0.2-0.1l-3.2-3.2c-0.1-0.1-0.1-0.1-0.1-0.2v-0.5c0-0.2,0.2-0.3,0.3-0.3
		h20.9c0.2,0,0.3,0.2,0.3,0.3v0.5c0,0.1,0,0.2-0.1,0.2l-3.2,3.2c-0.1,0.1-0.1,0.1-0.2,0.1H157.3z"/>
	<path class="st1" d="M172.9,225.7c0.1,0,0.2,0,0.2,0.1l4.2,4.2c0.1,0.1,0.1,0.1,0.1,0.2v20.6c0,0.1,0,0.2-0.1,0.2l-4.2,4.2
		c-0.1,0.1-0.1,0.1-0.2,0.1h-20.6c-0.1,0-0.2,0-0.2-0.1l-4.2-4.2c-0.1-0.1-0.1-0.1-0.1-0.2v-20.6c0-0.1,0-0.2,0.1-0.2l4.2-4.2
		c0.1-0.1,0.1-0.1,0.2-0.1H172.9z M163.5,242.4c0.1,0.1,0.1,0.1,0.2,0.1h9.3c0.2,0,0.3-0.2,0.3-0.3v-3.4c0-0.2-0.2-0.3-0.3-0.3H165
		c-0.2,0-0.3-0.2-0.3-0.3V230c0-0.2-0.2-0.3-0.3-0.3h-3.4c-0.2,0-0.3,0.2-0.3,0.3v9.3c0,0.1,0,0.2,0.1,0.2L163.5,242.4z
		 M151.8,247.7c0,0.1,0,0.2,0.1,0.2l3.2,3.2c0.1,0.1,0.1,0.1,0.2,0.1h14.5c0.1,0,0.2,0,0.2-0.1l3.2-3.2c0.1-0.1,0.1-0.1,0.1-0.2
		v-0.5c0-0.2-0.2-0.3-0.3-0.3h-16.5c-0.2,0-0.3-0.2-0.3-0.3V230c0-0.2-0.2-0.3-0.3-0.3h-0.5c-0.1,0-0.2,0-0.2,0.1l-3.2,3.2
		c-0.1,0.1-0.1,0.1-0.1,0.2V247.7z M173,234.1c0.2,0,0.3-0.2,0.3-0.3v-0.7v-3c0-0.2-0.2-0.3-0.3-0.3h-3h-0.7c-0.2,0-0.3,0.2-0.3,0.3
		v3.7c0,0.2,0.2,0.3,0.3,0.3H173z"/>
	<path class="st1" d="M102.2,268.9c0-0.1,0-0.2,0.1-0.2l4.2-4.2c0.1-0.1,0.1-0.1,0.2-0.1h20.6c0.1,0,0.2,0,0.2,0.1l4.2,4.2
		c0.1,0.1,0.1,0.1,0.1,0.2v20.6c0,0.1,0,0.2-0.1,0.2l-4.2,4.2c-0.1,0.1-0.1,0.1-0.2,0.1h-20.6c-0.1,0-0.2,0-0.2-0.1l-4.2-4.2
		c-0.1-0.1-0.1-0.1-0.1-0.2V268.9z M109.8,268.4c-0.1,0-0.2,0-0.2,0.1l-3.2,3.2c-0.1,0.1-0.1,0.1-0.1,0.2v0.5c0,0.2,0.2,0.3,0.3,0.3
		h8.1c0.2,0,0.3,0.2,0.3,0.3v12.1c0,0.2-0.2,0.3-0.3,0.3h-8.1c-0.2,0-0.3,0.2-0.3,0.3v0.5c0,0.1,0,0.2,0.1,0.2l3.2,3.2
		c0.1,0.1,0.1,0.1,0.2,0.1h5.8c0.1,0,0.2,0,0.2-0.1l3.2-3.2c0.1-0.1,0.1-0.1,0.1-0.2V272c0-0.1,0-0.2-0.1-0.2l-3.2-3.2
		c-0.1-0.1-0.1-0.1-0.2-0.1H109.8z M106.3,277.5c0-0.2,0.2-0.3,0.3-0.3h3.7c0.2,0,0.3,0.2,0.3,0.3v3.4c0,0.2-0.2,0.3-0.3,0.3h-3.7
		c-0.2,0-0.3-0.2-0.3-0.3V277.5z M127.8,286.5c0,0.1,0,0.2-0.1,0.2l-3.2,3.2c-0.1,0.1-0.1,0.1-0.2,0.1h-0.5c-0.2,0-0.3-0.2-0.3-0.3
		v-20.9c0-0.2,0.2-0.3,0.3-0.3h0.5c0.1,0,0.2,0,0.2,0.1l3.2,3.2c0.1,0.1,0.1,0.1,0.1,0.2V286.5z"/>
	<path class="st1" d="M170.9,264.6c0.1,0,0.2,0,0.2,0.1l4.2,4.2c0.1,0.1,0.1,0.1,0.1,0.2v20.6c0,0.1,0,0.2-0.1,0.2l-4.2,4.2
		c-0.1,0.1-0.1,0.1-0.2,0.1h-20.6c-0.1,0-0.2,0-0.2-0.1l-4.2-4.2c-0.1-0.1-0.1-0.1-0.1-0.2v-20.6c0-0.1,0-0.2,0.1-0.2l4.2-4.2
		c0.1-0.1,0.1-0.1,0.2-0.1H170.9z M171.4,272.1c0-0.1,0-0.2-0.1-0.2l-3.2-3.2c-0.1-0.1-0.1-0.1-0.2-0.1h-14.5c-0.1,0-0.2,0-0.2,0.1
		l-3.2,3.2c-0.1,0.1-0.1,0.1-0.1,0.2v9c0,0.2,0.2,0.3,0.3,0.3h3.7c0.2,0,0.3-0.2,0.3-0.3v-7.7c0-0.2,0.2-0.3,0.3-0.3H171
		c0.2,0,0.3-0.2,0.3-0.3V272.1z M149.8,286.7c0,0.1,0,0.2,0.1,0.2l3.2,3.2c0.1,0.1,0.1,0.1,0.2,0.1h14.5c0.1,0,0.2,0,0.2-0.1
		l3.2-3.2c0.1-0.1,0.1-0.1,0.1-0.2v-9c0-0.2-0.2-0.3-0.3-0.3h-3.7c-0.2,0-0.3,0.2-0.3,0.3v7.7c0,0.2-0.2,0.3-0.3,0.3h-16.5
		c-0.2,0-0.3,0.2-0.3,0.3V286.7z M158.9,281.4c-0.2,0-0.3-0.2-0.3-0.3v-3.4c0-0.2,0.2-0.3,0.3-0.3h3.4c0.2,0,0.3,0.2,0.3,0.3v3.4
		c0,0.2-0.2,0.3-0.3,0.3H158.9z"/>
	<path class="st1" d="M102.2,247c0,0.1,0,0.2,0.1,0.2l4.2,4.2c0.1,0.1,0.1,0.1,0.2,0.1h20.6c0.1,0,0.2,0,0.2-0.1l4.2-4.2
		c0.1-0.1,0.1-0.1,0.1-0.2v-20.6c0-0.1,0-0.2-0.1-0.2l-4.2-4.2c-0.1-0.1-0.1-0.1-0.2-0.1h-20.6c-0.1,0-0.2,0-0.2,0.1l-4.2,4.2
		c-0.1,0.1-0.1,0.1-0.1,0.2V247z M109.8,247.5c-0.1,0-0.2,0-0.2-0.1l-3.2-3.2c-0.1-0.1-0.1-0.1-0.1-0.2v-14.5c0-0.1,0-0.2,0.1-0.2
		l3.2-3.2c0.1-0.1,0.1-0.1,0.2-0.1h9c0.2,0,0.3,0.2,0.3,0.3v3.7c0,0.2-0.2,0.3-0.3,0.3H111c-0.2,0-0.3,0.2-0.3,0.3v16.5
		c0,0.2-0.2,0.3-0.3,0.3H109.8z M124.3,225.9c0.1,0,0.2,0,0.2,0.1l3.2,3.2c0.1,0.1,0.1,0.1,0.1,0.2V244c0,0.1,0,0.2-0.1,0.2
		l-3.2,3.2c-0.1,0.1-0.1,0.1-0.2,0.1h-9c-0.2,0-0.3-0.2-0.3-0.3v-3.7c0-0.2,0.2-0.3,0.3-0.3h7.7c0.2,0,0.3-0.2,0.3-0.3v-16.5
		c0-0.2,0.2-0.3,0.3-0.3H124.3z M119.1,235c0-0.2-0.2-0.3-0.3-0.3h-3.4c-0.2,0-0.3,0.2-0.3,0.3v3.4c0,0.2,0.2,0.3,0.3,0.3h3.4
		c0.2,0,0.3-0.2,0.3-0.3V235z"/>
	<g>
		<path class="st2" d="M204.6,30.5c0.7,0.7,0.7,1.8,0,2.5l-6.1,5.6c0,0-0.1,0.1-0.1,0.1v1.7c0,0.1-0.1,0.2-0.2,0.2h-5.7
			c-0.1,0-0.2-0.2-0.1-0.3l2.6-2.5c0.1-0.1,0.1-0.2,0-0.2c-2-2.6-3.2-5.8-3.2-9.3c0-2.6,0.6-5,1.8-7.1c0.3-0.5,1-0.6,1.4-0.2
			l2.2,2.2c0.3,0.3,0.3,0.7,0.2,1.1c-0.5,1.3-0.8,2.6-0.8,4.1c0,2.2,0.7,4.3,1.9,6l3.6-3.7C202.8,29.8,203.9,29.8,204.6,30.5z"/>
		<path class="st2" d="M211.6,25.8c-0.7,0.7-1.8,0.7-2.5,0c-0.7-0.7-0.7-1.8,0-2.5l3.9-4c-1.7-1.1-3.7-1.7-5.8-1.7
			c-1.5,0-3,0.3-4.3,0.9c-0.4,0.2-0.8,0.1-1.1-0.2l-2.1-2.1c-0.4-0.4-0.3-1.1,0.2-1.4c2.2-1.2,4.7-1.9,7.4-1.9c3.4,0,6.5,1.1,9,2.9
			c0.1,0,0.1,0,0.2,0l2.9-2.4c0.1-0.1,0.3,0,0.3,0.1v5.7c0,0.1-0.1,0.2-0.2,0.2h-1.7c0,0-0.1,0-0.1,0.1L211.6,25.8z"/>
		<path class="st2" d="M197.1,11.3l-8.6-2.4c-0.3-0.1-0.7,0.2-0.6,0.6l2.4,8.6c0.1,0.3,0.5,0.5,0.8,0.2l1.7-1.7
			c0.2-0.2,0.5-0.2,0.7,0L211,33.9v3l3.3,2.6l0.3-4l4-0.3l-2.6-3.3h-3l-17.5-17.3c-0.2-0.2-0.2-0.5,0-0.7l1.9-1.9
			C197.6,11.8,197.5,11.4,197.1,11.3z"/>
	</g>
	<path class="st1" d="M202.5,44.6c-4,2.5-12.5,7.4-14.8,7.4c-0.5,7.3,1.8,22.6,14.8,25.5c13-3,15.2-18.3,14.8-25.5
		C214.9,52.1,206.4,47.1,202.5,44.6z M190.5,53.6c1.9,0,8.8-4.1,12-6.2c3.2,2.1,10.1,6.2,12,6.2c0.4,6.1-1.5,18.8-12,21.3
		C191.9,72.4,190.1,59.6,190.5,53.6z M202.5,50.1c-2.5,1.6-7.8,4.9-9.2,4.9c-0.3,4.8,1.1,15,9.2,17c8.1-2,9.5-12.2,9.2-17
		C210.3,55.1,204.9,51.8,202.5,50.1z"/>
	<g>
		<path class="st2" d="M189.2,109.9v-4.8c0-0.3,0.2-0.5,0.5-0.5h2.8l2.8-3.4l-3.5-4.1c-0.2-0.2-0.2-0.4-0.2-0.6v-2.5
			c0-0.5,0.4-1,0.9-1h3.1c0.4,0,0.7,0.3,0.7,0.7c0,0.2-0.1,0.4-0.2,0.5l-1.2,1.2l9.4,10.1l1.7-1.7c0.1-0.1,0.3-0.2,0.5-0.2
			c0.4,0,0.7,0.3,0.7,0.7v3.2c0,0.5-0.4,1-0.9,1h-3.4c-0.2,0-0.5-0.1-0.6-0.2l-3.9-3.6l-3.3,2.4v2.9c0,0.3-0.2,0.5-0.5,0.5h-4.7
			C189.4,110.4,189.2,110.1,189.2,109.9z"/>
		<path class="st2" d="M197.8,95l14.7-13.4l6.5,0.5l-0.5,6.7l-15.5,12.3l-2.1-2.6l8.9-7.5l3.2-3.6l-4.1,2.6l-8.9,7.5L197.8,95z"/>
	</g>
	<g>
		<path class="st2" d="M151.4,153.3c0-1.3,0.3-9.2,6.9-9.2c3.4,0,3.9,2,4,3c0,0.3-0.3,0.6-0.6,0.5l-1.8-0.2c-0.3,0-0.5,0.3-0.3,0.6
			c1.4,1.4,2.3,2.2,4.9,2.3c2.6-0.1,3.5-0.9,4.9-2.3c0.2-0.2,0-0.6-0.3-0.6l-1.8,0.2c-0.3,0-0.6-0.2-0.6-0.5c0-1,0.6-3,4-3
			c6.6,0,6.9,7.9,6.9,9.2c0,6.9-4.6,14.5-9.9,14.5c-0.9,0-1.3,0-1.6-0.1c-0.6-0.2-1-0.6-1.6-0.6h-0.1c-0.6,0-1.1,0.4-1.6,0.6
			c-0.2,0.1-0.6,0.1-1.6,0.1C156.1,167.8,151.4,160.2,151.4,153.3z"/>
		<path class="st2" d="M165.6,145.7c0.3,0.3,0.4,0.6,0.4,0.9s-0.1,0.7-0.4,0.9c-0.5,0.5-1.3,0.5-1.9,0c-0.3-0.3-0.4-0.6-0.4-0.9
			s0.1-0.7,0.4-0.9C164.3,145.2,165.1,145.2,165.6,145.7z"/>
		<path class="st2" d="M163.7,145.7c0.5-0.5,1.3-0.5,1.9,0c0.3,0.3,0.4,0.6,0.4,0.9c0-3.6,0.1-5.9,0.6-7.4c-0.3,0.2-0.6,0.2-0.9,0.2
			c-0.9,0-1.6-0.7-1.6-1.6c0-0.1,0-0.2,0-0.3c-1,2.2-1,6.6-0.8,9.1C163.4,146.3,163.5,146,163.7,145.7z"/>
		<path class="st1" d="M165.8,136.2c0.6,0,1.1,0.3,1.3,0.7c0.4,0.5,0,1.2-0.3,1.8c-0.1,0.2-0.2,0.4-0.2,0.6
			c-0.3,0.2-0.6,0.2-0.9,0.2c-0.9,0-1.6-0.7-1.6-1.6c0-0.1,0-0.2,0-0.3C164.5,136.7,165,136.2,165.8,136.2z"/>
		<path class="st2" d="M162,141.8c-0.2-4.7-4.1-4.9-8.5-4.9c-0.2,0-0.4,0.2-0.3,0.4c0.8,4.8,4.2,4.9,8.5,4.9
			C161.8,142.1,162,142,162,141.8z"/>
	</g>
	<g>
		<path class="st2" d="M202.5,131.5c-7.6,0-13.8,6.2-13.8,13.8c0,1.6,0.3,3.2,0.8,4.6h2.5v2.6h2.6v-2.6h6.6v2.6h2.6v-2.6h6.6v2.6
			h2.6v-2.6h2.5c0.5-1.4,0.8-3,0.8-4.6C216.3,137.6,210.1,131.5,202.5,131.5z"/>
		<path class="st2" d="M208.4,151.9h-2.6v2.6h-6.6v-2.6h-2.6v2.6h-4.4c2.5,2.8,6.2,4.6,10.3,4.6c4.1,0,7.8-1.8,10.3-4.6h-4.4V151.9z
			"/>
	</g>
	<path class="st1" d="M199.6,211.9c0-0.2,0.2-0.4,0.4-0.4h5c0.2,0,0.4,0.2,0.4,0.4v3.5c0,0.2,0.1,0.3,0.3,0.4c1,0.4,1.9,0.9,2.7,1.6
		c0.1,0.1,0.3,0.1,0.5,0l3-1.7c0.2-0.1,0.4,0,0.5,0.1l2.5,4.3c0.1,0.2,0,0.4-0.1,0.5l-3,1.7c-0.1,0.1-0.2,0.3-0.2,0.4
		c0.1,0.5,0.1,1,0.1,1.6s0,1.1-0.1,1.6c0,0.2,0,0.3,0.2,0.4l3,1.7c0.2,0.1,0.3,0.4,0.1,0.5l-2.5,4.3c-0.1,0.2-0.4,0.3-0.5,0.1
		l-3-1.7c-0.1-0.1-0.3-0.1-0.5,0c-0.8,0.7-1.7,1.2-2.7,1.6c-0.2,0.1-0.3,0.2-0.3,0.4v3.5c0,0.2-0.2,0.4-0.4,0.4h-5
		c-0.2,0-0.4-0.2-0.4-0.4v-3.5c0-0.2-0.1-0.3-0.3-0.4c-1-0.4-1.9-0.9-2.7-1.6c-0.1-0.1-0.3-0.1-0.5,0l-3,1.7c-0.2,0.1-0.4,0-0.5-0.1
		l-2.5-4.3c-0.1-0.2,0-0.4,0.1-0.5l3-1.7c0.1-0.1,0.2-0.3,0.2-0.4c-0.1-0.5-0.1-1-0.1-1.6s0-1.1,0.1-1.6c0-0.2,0-0.3-0.2-0.4l-3-1.7
		c-0.2-0.1-0.3-0.4-0.1-0.5l2.5-4.3c0.1-0.2,0.4-0.3,0.5-0.1l3,1.7c0.1,0.1,0.3,0.1,0.5,0c0.8-0.7,1.7-1.2,2.7-1.6
		c0.2-0.1,0.3-0.2,0.3-0.4V211.9z M202.5,228.8c2.5,0,4.5-2,4.5-4.5s-2-4.5-4.5-4.5c-2.5,0-4.5,2-4.5,4.5S200,228.8,202.5,228.8z"/>
	<g>
		<path class="st2" d="M248.6,13.4c0,1.4-1.1,2.5-2.5,2.5c-1.4,0-2.5-1.1-2.5-2.5s1.1-2.5,2.5-2.5C247.5,10.9,248.6,12,248.6,13.4z"
			/>
		<path class="st2" d="M248.6,38.1c0,1.4-1.1,2.5-2.5,2.5c-1.4,0-2.5-1.1-2.5-2.5s1.1-2.5,2.5-2.5C247.5,35.7,248.6,36.8,248.6,38.1
			z"/>
		<path class="st2" d="M236.2,25.8c0,1.4-1.1,2.5-2.5,2.5c-1.4,0-2.5-1.1-2.5-2.5c0-1.4,1.1-2.5,2.5-2.5
			C235.1,23.3,236.2,24.4,236.2,25.8z"/>
		<path class="st2" d="M261,25.8c0,1.4-1.1,2.5-2.5,2.5c-1.4,0-2.5-1.1-2.5-2.5c0-1.4,1.1-2.5,2.5-2.5C259.9,23.3,261,24.4,261,25.8
			z"/>
		<path class="st2" d="M239.1,15.3c1,1,1,2.5,0,3.5c-1,1-2.5,1-3.5,0c-1-1-1-2.5,0-3.5C236.6,14.3,238.2,14.3,239.1,15.3z"/>
		<path class="st2" d="M256.6,32.8c1,1,1,2.5,0,3.5c-1,1-2.5,1-3.5,0s-1-2.5,0-3.5S255.7,31.8,256.6,32.8z"/>
		<path class="st2" d="M239.1,32.8c1,1,1,2.5,0,3.5c-1,1-2.5,1-3.5,0c-1-1-1-2.5,0-3.5C236.6,31.8,238.2,31.8,239.1,32.8z"/>
		<path class="st2" d="M256.6,15.3c1,1,1,2.5,0,3.5c-1,1-2.5,1-3.5,0c-1-1-1-2.5,0-3.5S255.7,14.3,256.6,15.3z"/>
		<path class="st2" d="M252.7,25.8c0,3.6-3,6.6-6.6,6.6c-3.6,0-6.6-3-6.6-6.6s3-6.6,6.6-6.6C249.8,19.2,252.7,22.1,252.7,25.8z"/>
	</g>
	<g>
		<path class="st2" d="M255.6,65.8c0,3-2.4,5.4-5.4,5.4H235c-2.3,0-4.1-1.8-4.1-4.1s1.8-4.1,4.1-4.1h1.7c0-0.1,0-0.3,0-0.4
			c0-3.4,2.8-6.2,6.2-6.2c2.7,0,5,1.7,5.8,4.1h1.6C253.2,60.4,255.6,62.8,255.6,65.8z"/>
		<path class="st2" d="M261.4,54.8c0,2.2-1.7,4-3.9,4h-2.2c-1.3-1-2.9-1.6-4.7-1.6c-0.3-0.4-0.6-0.8-1-1.2c-0.2-0.2-0.3-0.4-0.5-0.5
			c-0.7-0.6-1.4-1.1-2.3-1.5c-1.2-0.6-2.6-0.9-4.1-0.9c-1,0-2,0.2-2.9,0.4c0.2-2.4,2.3-4.3,4.7-4.3h1.6c0.7-2.1,2.6-3.5,4.8-3.5
			c2.8,0,5.1,2.4,5.1,5.3h1.3C259.7,50.8,261.4,52.6,261.4,54.8z"/>
	</g>
	<g>
		<path class="st2" d="M245.8,85.6l4.3-9.3c0.1-0.3,0.6-0.3,0.8,0l4.4,9.8c0.8,1.7,1.4,3.5,1.5,5.3c0.1,3.1-0.6,7.5-6.3,7.5
			c-5.3,0-6.4-3.9-6.4-6.9C244,89.8,244.8,87.6,245.8,85.6z"/>
		<path class="st2" d="M237.1,79.3l1.4-3c0.1-0.3,0.6-0.3,0.8,0l1.6,3.6c0.7,1.7,1.6,3.5,1.3,5.3c-0.2,1.3-1,2.7-3.2,2.7
			c-1.9,0-2.7-1-3.1-2.1C235.1,83.6,236.2,81.4,237.1,79.3z"/>
	</g>
	<path class="st2" d="M258.6,126c-0.6,1-1.8,1.3-2.8,0.8c0,0,0,0,0,0l-7.5-4.4v9.2c0,1.1-0.9,2.1-2.1,2.1c-1.1,0-2.1-0.9-2.1-2.1
		v-9.3l-7.6,4.4c0,0,0,0,0,0c-1,0.6-2.3,0.2-2.8-0.8c-0.6-1-0.2-2.2,0.8-2.8l7.6-4.4l-7.7-4.4c-1-0.6-1.3-1.8-0.8-2.8
		c0.6-1,1.8-1.3,2.8-0.8c0,0,0,0,0,0l7.7,4.5V106c0-1.1,0.9-2.1,2.1-2.1c1.1,0,2.1,0.9,2.1,2.1v9.1l7.5-4.4l0,0
		c1-0.6,2.3-0.2,2.8,0.8c0.6,1,0.2,2.2-0.8,2.8l-7.6,4.4l7.6,4.4C258.9,123.7,259.2,125,258.6,126z"/>
	<path class="st2" d="M251.9,138.5h-11.5l-7,16.1h10.7l-5.8,12h1.2l19.4-19.4h-10.7L251.9,138.5z"/>
	<g>
		<path class="st1" d="M262.5,188.1c0,2.2-1.9,4-4.2,4h-7c-1-0.4-2.1-0.6-3.2-0.6H248c-0.3-0.5-0.6-0.9-1-1.3
			c-1.8-2.1-4.5-3.5-7.5-3.5c-0.7,0-1.4,0.1-2.1,0.2v-0.1c0-2.9,2.4-5.2,5.4-5.2h1.6c0.9-2.3,3.2-4,5.9-4c3.5,0,6.3,2.7,6.3,6.1
			c0,0.1,0,0.3,0,0.4h1.7C260.6,184.1,262.5,185.9,262.5,188.1z"/>
		<path class="st2" d="M258.5,206.7h-28.2c-2.7,0-4.8-2.1-4.8-4.8c0-2.7,2.1-4.8,4.8-4.8h1.9c0-0.2,0-0.3,0-0.5c0-4,3.2-7.2,7.2-7.2
			c3.2,0,5.8,2,6.8,4.8h1.9c3.5,0,6.3,2.8,6.3,6.2c0,0.9-0.2,1.7-0.5,2.5c0,0.5,0.2,0.9,0.7,1.2L258.5,206.7z"/>
	</g>
	<path class="st1" d="M200.4,253.6c-0.1-0.3-0.5-0.3-0.6,0l-12.3,28.7c-0.3,0.5-1.2,1.8-2.6,3c-0.3,0.2-0.1,0.7,0.2,0.7h34.7
		c0.3,0,0.5-0.4,0.2-0.6c-1.2-1.1-1.9-2.4-2.1-2.9l0-0.1l-8.6-19.5c-0.1-0.3-0.5-0.3-0.6,0l-2,4c-0.1,0.3-0.5,0.2-0.6,0L200.4,253.6
		z M196.6,269.4c-0.2,0-0.4-0.2-0.3-0.5l3.5-8.4c0.1-0.3,0.5-0.3,0.6,0l3.5,8.4c0.1,0.2-0.1,0.5-0.3,0.5H196.6z M209.3,269.9
		c-0.1-0.3-0.5-0.3-0.6,0l-3.1,7.7c-0.1,0.2,0.1,0.5,0.3,0.5h6.3c0.2,0,0.4-0.2,0.3-0.5L209.3,269.9z"/>
	<g>
		<path class="st2" d="M240.4,258.7h-15.9l2.4,2.6c0.9,0.9,1.5,2.1,1.9,3.4l4,14.5l3.7-15.2c0.1-0.4,0.2-0.7,0.4-1l0.1-0.3
			c0.2-0.4,0.4-0.7,0.7-1L240.4,258.7z"/>
		<path class="st1" d="M243,259c0-0.2,0.2-0.3,0.4-0.3h15.8c0.3,0,0.4,0.3,0.2,0.6l-3.6,3.8c-0.3,0.4-0.6,0.8-0.7,1.3l-6.1,20.1
			c-0.1,0.3-0.5,0.3-0.6,0l-1.4-4.1c-0.1-0.3-0.5-0.3-0.6,0l-4,10.8c-0.1,0.3-0.5,0.3-0.6,0l-5.2-16.2l2.5-10.4
			c0-0.2,0.1-0.3,0.2-0.4l0.1-0.3c0.1-0.2,0.2-0.3,0.3-0.4l2.7-2.9C242.7,260.1,243,259.5,243,259z"/>
	</g>
	<path class="st1" d="M242.5,219.8c-0.2,0-0.3,0.3-0.2,0.5l1.1,1.4c0,0.1,0.1,0.1,0.2,0.1c1.7,0.4,3.7,1.4,5.3,3.4
		c1.8,2.3,3.1,5.7,3.1,10.5c0,2-0.4,3.7-1,5.1c-0.1,0.2,0.1,0.4,0.3,0.4h2c0.1,0,0.3-0.1,0.3-0.2c0.6-1.8,0.9-3.8,0.9-5.9
		c0-8.5-5.1-15.4-11.4-15.4C242.9,219.8,242.7,219.8,242.5,219.8z"/>
	<path class="st1" d="M240.7,236.1c-0.9,2.7-2.4,6.6-4.1,9.8c-0.2,0.4,0.1,0.9,0.5,0.9c4.9-0.1,13.1-2.4,13.1-11.1
		c0-9-4.8-11.9-7.4-12.3c-0.2,0-0.3-0.1-0.4-0.2l-2.4-2.9l-1.4-1.7c-0.1-0.1-0.2-0.2-0.3-0.2c-0.2,0-0.4,0.2-0.4,0.4v2.5v2
		c0,0.3-0.3,0.6-0.6,0.6c-0.8,0.1-1.8,0.3-2.7,0.8c-1.2,0.7-2.2,1.9-2.2,3.8c0,0.2-0.1,0.3-0.2,0.4l-5.7,6.3
		c-0.2,0.2-0.2,0.4-0.1,0.6c0.4,0.9,1.4,2.1,2.9,2.1c0.8,0,1.7-0.3,2.6-0.7c0.9-0.4,1.9-1,2.5-1.4c0.3-0.2,0.6-0.1,0.9,0
		c0.3,0.2,0.8,0.3,1.4,0.3c0.7,0,2.1-0.7,3.2-1.3c0.5-0.3,1.1,0.2,0.9,0.7C240.8,235.9,240.7,236,240.7,236.1z M235.5,229.6
		c1.2,0,2.5-0.9,2.5-2.5c0-0.7-0.6-0.9-1.3-0.9c-0.9,0-2.1,0.9-2.1,2.2C234.6,229.1,234.9,229.6,235.5,229.6z"/>
	<path class="st1" d="M279.4,51.8c-0.1-0.1-0.2-0.2-0.4-0.4L279.4,51.8z"/>
	<path class="st1" d="M279.4,81.5c-0.1-0.1-0.2-0.2-0.4-0.4L279.4,81.5z"/>
	<path class="st1" d="M274.1,144.6l0.4,0.4C274.3,144.9,274.2,144.8,274.1,144.6z"/>
	<g>
		<path class="st2" d="M321.1,14c-3.4,0-6.2,2.8-6.2,6.2c0,1.6,0.6,3.1,1.6,4.2l0.4,0.4l12.2,12.2c0.3,0.3,0.8,0.3,1.2,0l1.6-1.6
			c0.2-0.2,0.2-0.4,0-0.6l-6-6c-0.2-0.2-0.2-0.4,0-0.6l3.6-3.9c0.1-0.2,0.1-0.4,0-0.6l-4-3.8c-0.2-0.2-0.2-0.4,0-0.6l1.3-1.5
			c0.1-0.2,0.1-0.4,0-0.6l-1.1-1.1C324.6,14.8,322.9,14,321.1,14z"/>
		<path class="st2" d="M344.5,20.2c0-3.4-2.8-6.2-6.2-6.2c-1.8,0-3.5,0.8-4.6,2.1l-3.7,3.8c-0.2,0.2-0.2,0.4,0,0.6l3.5,3.1
			c0.2,0.2,0.2,0.4,0,0.6l-3.6,3.9c-0.1,0.2-0.1,0.4,0,0.6l4,3.9c0.2,0.2,0.4,0.2,0.6,0l7.5-7.5C343.6,24,344.5,22.2,344.5,20.2z"/>
	</g>
	<path class="st1" d="M329.7,78.9c8.4,0,15.2-6.8,15.2-15.2s-6.8-15.2-15.2-15.2c-8.4,0-15.2,6.8-15.2,15.2S321.3,78.9,329.7,78.9z
		 M329.7,69.9c3.4,0,6.2-2.8,6.2-6.2s-2.8-6.2-6.2-6.2s-6.2,2.8-6.2,6.2S326.3,69.9,329.7,69.9z"/>
	<path class="st1" d="M345.4,96.5l-9.5-9.6h-12.3l-9.5,9.6c-0.6,0.6-0.6,1.7,0,2.3l14.6,14.9c0.6,0.7,1.7,0.7,2.3,0l14.6-14.9
		C346.1,98.2,346.1,97.1,345.4,96.5z M318.2,98.1h5.8l3.2,8.1l0.5,1.3l-0.3-0.3L318.2,98.1z M324.8,97.2l0.5-1.2l2-5.4h4.9l2,5.4
		l0.5,1.2H324.8z M332.1,107.2l-0.3,0.3l0.5-1.4l3.2-8.1h5.8L332.1,107.2z"/>
	<path class="st2" d="M326.4,141.3v13.1c0,0.2,0.2,0.3,0.3,0.3h6.1c0.2,0,0.3-0.2,0.3-0.3v-13.1c0-0.2,0.2-0.3,0.3-0.3h9
		c0.3,0,0.4-0.4,0.3-0.6L330,125.7c-0.1-0.2-0.4-0.2-0.5,0l-12.7,14.7c-0.2,0.2,0,0.6,0.3,0.6h9C326.2,141,326.4,141.1,326.4,141.3z
		"/>
	<g>
		<path class="st2" d="M331.7,229.5L318.4,216h-6.4v6.3l14.2,12.6l2.3-2.3l-8.1-7.7l-2.9-3.6l3.8,2.7l8.1,7.7L331.7,229.5z"/>
		<path class="st2" d="M338,240.6l-0.6,0.6c-0.6,0.6-1.7,0.6-2.3,0l-4.3-4.3l-3.3,3.3c-0.7,0.6-1.7,0.6-2.3,0
			c-0.6-0.6-0.6-1.7,0-2.3l9-9c0.6-0.6,1.7-0.6,2.3,0s0.6,1.7,0,2.3l-2.9,2.9l4.3,4.3C338.6,239,338.6,240,338,240.6z"/>
		<path class="st2" d="M324.2,237.7c-0.5,0.8-0.5,1.8,0,2.6c-0.7,0.5-1.6,0.4-2.2-0.1l-3.3-3.3l-4.3,4.3c-0.6,0.6-1.7,0.6-2.3,0
			l-0.6-0.6c-0.6-0.6-0.6-1.7,0-2.3l4.3-4.3l-2.9-2.9c-0.6-0.7-0.6-1.7,0-2.3c0.6-0.6,1.7-0.6,2.3,0L324.2,237.7L324.2,237.7z"/>
		<path class="st2" d="M331.2,216h6.4v6.3l-4.7,4l-5.8-5.8L331.2,216z"/>
	</g>
	<g>
		<path class="st2" d="M328.7,273.8c0.2,0.2,0.2,0.4,0,0.6l-1.2,1.2c-0.2,0.2-0.4,0.2-0.6,0l-12-12c-0.2-0.2-0.4-0.2-0.6,0l-1.5,1.5
			c-0.2,0.2-0.6,0.1-0.7-0.2l-2.1-7.7c-0.1-0.3,0.2-0.6,0.5-0.5l7.7,2.1c0.3,0.1,0.4,0.5,0.2,0.7l-1.7,1.7c-0.2,0.2-0.2,0.4,0,0.6
			L328.7,273.8z"/>
		<path class="st2" d="M317.1,286.1c-0.6,0.6-1.6,0.6-2.2,0c-0.6-0.6-0.6-1.6,0-2.2l1.6-1.7c-1.8-2.3-2.9-5.2-2.9-8.4
			c0-2.3,0.6-4.5,1.6-6.4c0.2-0.5,0.9-0.5,1.2-0.2l1.9,1.9c0.3,0.3,0.3,0.6,0.2,1c-0.5,1.1-0.7,2.4-0.7,3.6c0,2,0.6,3.8,1.7,5.4
			l3.2-3.3c0.6-0.6,1.6-0.6,2.2,0c0.6,0.6,0.6,1.6,0,2.2L317.1,286.1z"/>
		<path class="st2" d="M331.1,271.8c-0.6,0.6-1.6,0.6-2.2,0c-0.6-0.6-0.6-1.6,0-2.2l3.5-3.6c-1.5-1-3.3-1.5-5.2-1.5
			c-1.4,0-2.7,0.3-3.9,0.8c-0.3,0.1-0.7,0.1-1-0.2l-1.9-1.9c-0.4-0.4-0.3-1,0.1-1.2c2-1.1,4.2-1.7,6.6-1.7c3,0,5.8,1,8.1,2.7
			l1.3-1.4l0,0c0.6-0.6,1.6-0.6,2.2,0c0.6,0.6,0.6,1.6,0,2.2L331.1,271.8z"/>
	</g>
	<g>
		<path class="st2" d="M362.7,38.7c-0.6,0.6-1.5,0.2-1.5-0.6V13.5c0-0.8,1-1.2,1.5-0.6l12.3,12.3c0.4,0.4,0.4,0.9,0,1.3L362.7,38.7z
			"/>
		<path class="st2" d="M377.1,38.7c-0.6,0.6-1.5,0.2-1.5-0.6V13.5c0-0.8,1-1.2,1.5-0.6l12.3,12.3c0.4,0.4,0.4,0.9,0,1.3L377.1,38.7z
			"/>
	</g>
	<g>
		<path class="st2" d="M360.8,120.3l11.2-12.3h-5.8c3-8.9,7-13,8.6-14H367c-6.9,2-9.5,10.2-9.9,14H353L360.8,120.3z"/>
		<path class="st2" d="M381,111.3c0.3-9.4-2.8-14.6-4.7-16.4c-0.8,0.5-2.1,1.7-3.5,3.6C375.5,101.3,379.6,108.2,381,111.3z"/>
	</g>
	<g>
		<path class="st2" d="M366.3,49.3c0.2-0.7,1.3-0.7,1.5,0l0.1,0.4c1.5,5.3,5.4,9.5,10.6,11.4c0.7,0.2,0.7,1.2,0,1.4
			c-5.2,1.8-9.1,6.1-10.6,11.4l-0.1,0.4c-0.2,0.7-1.3,0.7-1.5,0l-0.1-0.4c-1.5-5.3-5.4-9.5-10.6-11.4c-0.7-0.2-0.7-1.2,0-1.4
			c5.2-1.8,9.1-6.1,10.6-11.4L366.3,49.3z"/>
		<path class="st2" d="M382.6,67.3c0.1-0.4,0.7-0.4,0.8,0l0,0.1c0.9,2.9,3.1,5.2,6,6.2c0.4,0.1,0.4,0.6,0,0.8c-2.9,1-5.1,3.3-6,6.2
			l0,0.1c-0.1,0.4-0.7,0.4-0.8,0l0-0.1c-0.9-2.9-3.1-5.2-6-6.2c-0.4-0.1-0.4-0.6,0-0.8c2.9-1,5.1-3.3,6-6.2L382.6,67.3z"/>
	</g>
	<g>
		<path class="st2" d="M352.4,138.9c2.6,7,2.6,7,2.6,7l10.5-2.6l-1.1-7.4c-0.9-4.3-4-6.5-7.5-5.6
			C353.1,131.3,351.3,135.3,352.4,138.9z"/>
		<path class="st2" d="M383.9,145.8c-2.6,7-2.6,7-2.6,7l-10.5-2.6l1.1-7.4c0.9-4.3,4-6.5,7.5-5.6C383.2,138.2,385,142.2,383.9,145.8
			z"/>
		<path class="st2" d="M370,154.9l0.3-1.9l9.9,2.5l-0.7,1.8c-0.9,2.4-3.4,3.7-5.8,3.1C371.3,159.8,369.7,157.4,370,154.9z"/>
		<path class="st2" d="M366.3,148l-0.3-1.9l-9.9,2.5l0.7,1.8c0.9,2.4,3.4,3.7,5.8,3.1C365,152.9,366.6,150.5,366.3,148z"/>
	</g>
	<path class="st2" d="M378.3,196.8c0,7-5.7,12.8-12.8,12.8c-7,0-12.8-5.7-12.8-12.8c0-2.3,0.6-4.5,1.7-6.4c0.6-1.1,1.4-2,2.3-2.9
		c1.4-1.3,3-2.5,4.4-3.8l1.4-1.4c0.9-0.9,1.7-1.9,1.7-3.2c0-0.8-0.2-1.6-0.5-2.2c1.8,1.5,3,3.8,3,6.4c0,0.3,0,0.6,0,0.9
		c0,0.4-0.1,0.7-0.2,1c-0.5,1.9-2.4,3.1-3.3,4.9c-0.4,0.7-0.6,1.5-0.6,2.3c0,2.7,2.2,4.9,4.9,4.9c2.7,0,4.9-2.2,4.9-4.9
		c0-0.4,0-0.8-0.1-1.1c-0.2-1-1.2-1.5-1.8-2.3c-0.2-0.2-0.3-0.5-0.4-0.8c-0.1-0.2-0.1-0.5-0.1-0.7c0-0.8,0.4-1.6,1-2
		c0.6-0.4,1.2-0.3,1.4-0.2c0.3,0.1,0.3,0.2,0.4,0.8c0.2,1.2,0.4,1.6,1.3,2.4c1.5,1.4,3.1,3.1,3.7,5.2
		C378.2,194.6,378.3,195.7,378.3,196.8z"/>
	<path class="st2" d="M354.2,231.8l15.6-16l-2.5,9.9l11.1,3.7l-16,16l2.1-10.3L354.2,231.8z"/>
	<path class="st1" d="M351.2,274.5c-2.7-2.7-2.7-7.2,0-9.9c2.7-2.7,7.2-2.7,9.9,0l2.8,2.6l2.8-2.6c2.7-2.7,7.2-2.7,9.9,0
		c2.7,2.7,2.7,7.2,0,9.9l-12.7,13L351.2,274.5z M354,267.5c-1.4,1.4-1.4,3.6,0,5l9.9,9.6l9.9-9.6c1.4-1.4,1.4-3.6,0-5
		c-1.4-1.4-3.6-1.4-5,0l-4.9,5.2l-4.9-5.2C357.6,266.1,355.4,266.1,354,267.5z"/>
	<path class="st1" d="M277,34.6l-9.3,7.5l9.2-17.9l6.3,9.2l3.5-6.5l-5.8-5.4l18.5-6.2l-0.4,22.1l-6.1-5.4l-9.6,14.5L277,34.6z"/>
	<path class="st1" d="M280.3,53.7L268.4,79c-0.3,0.5,0.1,1.2,0.7,1.2h28.7c0.6,0,1-0.6,0.8-1.2l-8.2-18.2c-0.3-0.6-1.2-0.7-1.5,0
		l-1.3,2.7c-0.2,0.3-0.6,0.3-0.7,0l-5-9.7C281.5,53.1,280.6,53.1,280.3,53.7z M278,67.7c-0.1,0.3,0.1,0.6,0.4,0.6h5.7
		c0.3,0,0.5-0.3,0.4-0.6l-3-6c-0.2-0.3-0.6-0.3-0.7,0L278,67.7z M290,69c-0.1-0.3-0.6-0.3-0.7,0l-2.6,5.2c-0.1,0.3,0.1,0.6,0.4,0.6
		h4.9c0.3,0,0.5-0.3,0.4-0.6L290,69z"/>
	<g>
		<path class="st2" d="M273.3,89.3c1.2-1.5,3-2.5,5.1-2.5c1.6,0,3.1,0.6,4.3,1.6l5,4.1c1.2,0.9,3,1.5,4.8,1.5c1.1,0,2.5-0.5,3.4-0.9
			c0.3-0.1,0.5,0.2,0.4,0.4c-0.6,1-1.7,2.8-2.5,3.8c-1.2,1.5-3,2.5-5.1,2.5c-1.6,0-3.1-0.6-4.3-1.6l-5.5-4.3
			c-1.2-0.9-2.5-1.3-4.3-1.3c-1.1,0-2.5,0.5-3.4,0.9c-0.3,0.1-0.5-0.2-0.4-0.4C271.5,92.1,272.5,90.3,273.3,89.3z"/>
		<path class="st2" d="M273.3,103.1c1.2-1.5,3-2.5,5.1-2.5c1.6,0,3.1,0.6,4.3,1.6l5,4.1c1.2,0.9,3,1.5,4.8,1.5
			c1.1,0,2.5-0.5,3.4-0.9c0.3-0.1,0.5,0.2,0.4,0.4c-0.6,1-1.7,2.8-2.5,3.8c-1.2,1.5-3,2.5-5.1,2.5c-1.6,0-3.1-0.6-4.3-1.6l-5.5-4.3
			c-1.2-0.9-2.5-1.3-4.3-1.3c-1.1,0-2.5,0.5-3.4,0.9c-0.3,0.1-0.5-0.2-0.4-0.4C271.5,105.9,272.5,104.2,273.3,103.1z"/>
	</g>
	<g>
		<path class="st2" d="M273.3,129.5l-2.9-2.9l6.2-6.2l4.7,4.7l4.7-4.7l4.6,4.6l3.2-3.2l2.9,2.9l-6.1,6.1l-1.2-1.2l-1.6-1.6l-1.7-1.7
			l-4.7,4.7l-4.7-4.7L273.3,129.5z"/>
		<path class="st2" d="M273.3,142.5l-2.9-2.9l6.2-6.2l4.7,4.7l4.7-4.7l4.6,4.6l3.2-3.2l2.9,2.9l-6.1,6.1l-1.2-1.2l-1.6-1.6l-1.7-1.7
			l-4.7,4.7l-4.7-4.7L273.3,142.5z"/>
	</g>
	<path class="st2" d="M283.5,150.4l5.3,6.2h-3.5v6.4h6.4v-3.5l6.2,5.3l-6.2,5.3v-3.5h-6.4v6.4h3.5l-5.3,6.2l-5.3-6.2h3.5v-6.4h-6.4
		v3.5l-6.2-5.3l6.2-5.3v3.5h6.4v-6.4h-3.5L283.5,150.4z"/>
	<g>
		<path class="st2" d="M277.9,191.9c-0.6-0.9-1.8-1.2-2.6-0.5c-1.5,1.3-2.7,3-3.4,4.9c-0.9,2.5-1,5.2-0.3,7.8
			c0.7,2.6,2.3,4.8,4.4,6.4c2.1,1.6,4.7,2.5,7.4,2.5c2.7,0,5.3-0.9,7.4-2.4c2.1-1.6,3.7-3.8,4.5-6.4c0.8-2.6,0.7-5.3-0.3-7.8
			c-0.7-1.9-1.9-3.6-3.3-4.9c-0.8-0.7-2-0.4-2.6,0.5c-0.6,0.9-0.3,2.1,0.4,2.9c0.8,0.8,1.4,1.8,1.8,2.9c0.6,1.7,0.7,3.6,0.2,5.3
			c-0.5,1.8-1.6,3.3-3.1,4.4c-1.5,1.1-3.2,1.7-5.1,1.7c-1.8,0-3.6-0.6-5.1-1.7c-1.5-1.1-2.5-2.6-3-4.4c-0.5-1.8-0.4-3.6,0.2-5.3
			c0.4-1.1,1-2.1,1.9-2.9C278.2,194,278.5,192.8,277.9,191.9z"/>
		<path class="st2" d="M285.6,198.3c0,1.3-0.9,2.3-2,2.3c-1.1,0-2-1-2-2.3v-10.1c0-1.3,0.9-2.3,2-2.3c1.1,0,2,1,2,2.3V198.3z"/>
	</g>
	<g>
		<path class="st1" d="M274.4,241.4v-14l9.1-7.8l9.1,7.8v14l-9.1,7.8L274.4,241.4z M283.5,224.1l-5.8,4.5v11.5l5.8,4.5l5.8-4.5
			v-11.5L283.5,224.1z"/>
		<path class="st2" d="M283.5,226.6l4.1,3.3v9.1l-4.1,3.3l-4.1-3.3v-9.1L283.5,226.6z"/>
	</g>
	<path class="st2" d="M271.2,257.4l10.8,7.5l1.5-9.1l1.5,9.1l10.8-7.5l-7.5,10.8l9.1,1.5l-9.1,1.5l7.5,10.8l-10.8-7.5l-1.5,9.1
		l-1.5-9.1l-10.8,7.5l7.5-10.8l-9.1-1.5l9.1-1.5L271.2,257.4z"/>
	<path class="st2" d="M321.4,199.2c-0.9,0.6-2.3,0.2-2.3-0.7v-27.3c0-0.9,1.5-1.3,2.3-0.7l18.6,13.6c0.5,0.4,0.5,1,0,1.4
		L321.4,199.2z"/>
</g>
</svg>
